<?xml version="1.0" encoding="UTF-8" standalone="yes"?>
<!DOCTYPE svg PUBLIC "-//W3C//DTD SVG 1.1//EN" "http://www.w3.org/Graphics/SVG/1.1/DTD/svg11.dtd">
<svg xmlns="http://www.w3.org/2000/svg" xmlns:xlink="http://www.w3.org/1999/xlink" version="1.1" width="3300" height="2200"><!--glyph: "uni100000.medium", point size: 100.000000, font version: "Version 15.0d4e20", template writer version: "2"--><style>
     /*  */
     .text {
       stroke:none;
       fill:black;
       font-family:-apple-system,"SF Pro Display","SF Pro Text",Helvetica,sans-serif;
     }
     /*  */
 </style><g id="Notes"><rect height="2200" id="artboard" style="fill:white;opacity:1" width="3300" x="0" y="0"/><line id="" style="fill:none;stroke:black;opacity:1;stroke-width:0.5;" x1="263" x2="3036" y1="292" y2="292"/><text class="text" style="font-weight:bold;" transform="translate(263 322)">Weight/Scale Variations</text><text class="text" style="text-anchor:middle;" transform="translate(559.711 322)">Ultralight</text><text class="text" style="text-anchor:middle;" transform="translate(856.422 322)">Thin</text><text class="text" style="text-anchor:middle;" transform="translate(1153.13 322)">Light</text><text class="text" style="text-anchor:middle;" transform="translate(1449.84 322)">Regular</text><text class="text" style="text-anchor:middle;" transform="translate(1746.56 322)">Medium</text><text class="text" style="text-anchor:middle;" transform="translate(2043.27 322)">Semibold</text><text class="text" style="text-anchor:middle;" transform="translate(2339.98 322)">Bold</text><text class="text" style="text-anchor:middle;" transform="translate(2636.69 322)">Heavy</text><text class="text" style="text-anchor:middle;" transform="translate(2933.4 322)">Black</text><line id="" style="fill:none;stroke:black;opacity:1;stroke-width:0.5;" x1="263" x2="3036" y1="1903" y2="1903"/><g id="" transform="translate(263 1933)"><path d="M 9.24805 0.830078 C 13.5547 0.830078 17.1387 -2.74414 17.1387 -7.05078 C 17.1387 -11.3574 13.5449 -14.9316 9.23828 -14.9316 C 4.94141 -14.9316 1.36719 -11.3574 1.36719 -7.05078 C 1.36719 -2.74414 4.95117 0.830078 9.24805 0.830078 Z M 9.24805 -0.654297 C 5.70312 -0.654297 2.87109 -3.49609 2.87109 -7.05078 C 2.87109 -10.6055 5.69336 -13.4473 9.23828 -13.4473 C 12.793 -13.4473 15.6348 -10.6055 15.6445 -7.05078 C 15.6543 -3.49609 12.8027 -0.654297 9.24805 -0.654297 Z M 9.22852 -3.42773 C 9.69727 -3.42773 9.9707 -3.74023 9.9707 -4.25781 L 9.9707 -6.31836 L 12.1973 -6.31836 C 12.6953 -6.31836 13.0371 -6.57227 13.0371 -7.04102 C 13.0371 -7.51953 12.7148 -7.7832 12.1973 -7.7832 L 9.9707 -7.7832 L 9.9707 -10.0098 C 9.9707 -10.5273 9.69727 -10.8496 9.22852 -10.8496 C 8.75977 -10.8496 8.50586 -10.5078 8.50586 -10.0098 L 8.50586 -7.7832 L 6.29883 -7.7832 C 5.78125 -7.7832 5.44922 -7.51953 5.44922 -7.04102 C 5.44922 -6.57227 5.80078 -6.31836 6.29883 -6.31836 L 8.50586 -6.31836 L 8.50586 -4.25781 C 8.50586 -3.75977 8.75977 -3.42773 9.22852 -3.42773 Z"/></g><g id="" transform="translate(281.506 1933)"><path d="M 11.709 2.91016 C 17.1484 2.91016 21.6699 -1.60156 21.6699 -7.05078 C 21.6699 -12.4902 17.1387 -17.0117 11.6992 -17.0117 C 6.25 -17.0117 1.74805 -12.4902 1.74805 -7.05078 C 1.74805 -1.60156 6.25977 2.91016 11.709 2.91016 Z M 11.709 1.25 C 7.09961 1.25 3.41797 -2.44141 3.41797 -7.05078 C 3.41797 -11.6504 7.08984 -15.3516 11.6992 -15.3516 C 16.2988 -15.3516 20 -11.6504 20.0098 -7.05078 C 20.0195 -2.44141 16.3086 1.25 11.709 1.25 Z M 11.6797 -2.41211 C 12.207 -2.41211 12.5195 -2.77344 12.5195 -3.33984 L 12.5195 -6.23047 L 15.5762 -6.23047 C 16.123 -6.23047 16.5039 -6.51367 16.5039 -7.03125 C 16.5039 -7.55859 16.1426 -7.86133 15.5762 -7.86133 L 12.5195 -7.86133 L 12.5195 -10.9277 C 12.5195 -11.5039 12.207 -11.8555 11.6797 -11.8555 C 11.1621 -11.8555 10.8789 -11.4844 10.8789 -10.9277 L 10.8789 -7.86133 L 7.83203 -7.86133 C 7.25586 -7.86133 6.89453 -7.55859 6.89453 -7.03125 C 6.89453 -6.51367 7.28516 -6.23047 7.83203 -6.23047 L 10.8789 -6.23047 L 10.8789 -3.33984 C 10.8789 -2.79297 11.1621 -2.41211 11.6797 -2.41211 Z"/></g><g id="" transform="translate(304.914 1933)"><path d="M 14.9707 5.67383 C 21.9336 5.67383 27.6855 -0.078125 27.6855 -7.04102 C 27.6855 -14.0039 21.9238 -19.7559 14.9609 -19.7559 C 7.99805 -19.7559 2.25586 -14.0039 2.25586 -7.04102 C 2.25586 -0.078125 8.00781 5.67383 14.9707 5.67383 Z M 14.9707 3.85742 C 8.92578 3.85742 4.08203 -1.00586 4.08203 -7.04102 C 4.08203 -13.0762 8.91602 -17.9395 14.9609 -17.9395 C 20.9961 -17.9395 25.8594 -13.0762 25.8691 -7.04102 C 25.8789 -1.00586 21.0059 3.85742 14.9707 3.85742 Z M 14.9414 -1.06445 C 15.5176 -1.06445 15.8594 -1.45508 15.8594 -2.06055 L 15.8594 -6.13281 L 20.0977 -6.13281 C 20.6934 -6.13281 21.1133 -6.46484 21.1133 -7.02148 C 21.1133 -7.59766 20.7227 -7.93945 20.0977 -7.93945 L 15.8594 -7.93945 L 15.8594 -12.1875 C 15.8594 -12.8027 15.5176 -13.1934 14.9414 -13.1934 C 14.3848 -13.1934 14.0625 -12.7832 14.0625 -12.1875 L 14.0625 -7.93945 L 9.82422 -7.93945 C 9.20898 -7.93945 8.80859 -7.59766 8.80859 -7.02148 C 8.80859 -6.46484 9.23828 -6.13281 9.82422 -6.13281 L 14.0625 -6.13281 L 14.0625 -2.06055 C 14.0625 -1.47461 14.3848 -1.06445 14.9414 -1.06445 Z"/></g><text class="text" style="font-weight:bold;" transform="translate(263 1953)">Design Variations</text><text class="text" transform="translate(263 1971)">Symbols are supported in up to nine weights and three scales.</text><text class="text" transform="translate(263 1989)">For optimal layout with text and other symbols, vertically align</text><text class="text" transform="translate(263 2007)">symbols with the adjacent text.</text><rect height="14" id="" style="fill:#00AEEF;stroke:none;opacity:0.4;" width="3" x="776" y="1919"/><g id="" transform="translate(779 1933)"><path d="M 10.5273 0 L 12.373 0 L 7.17773 -14.0918 L 5.43945 -14.0918 L 0.244141 0 L 2.08984 0 L 3.50586 -4.0332 L 9.11133 -4.0332 Z M 6.2793 -11.9531 L 6.33789 -11.9531 L 8.59375 -5.52734 L 4.02344 -5.52734 Z"/></g><rect height="14" id="" style="fill:#00AEEF;stroke:none;opacity:0.4;" width="3" x="791.617" y="1919"/><text class="text" style="font-weight:bold;" transform="translate(776 1953)">Side Bearings</text><text class="text" transform="translate(776 1971)">Horizontal padding on the left and right side of each symbol</text><text class="text" transform="translate(776 1989)">can be adjusted by modifying the width of the blue rectangles.</text><text class="text" transform="translate(776 2007)">Modifications are automatically applied proportionally to all</text><text class="text" transform="translate(776 2025)">scales and weights.</text><g id="" transform="translate(1289 1933)"><path d="M 2.96875 2.35352 L 3.80859 3.19336 C 4.84375 4.22852 6.12305 4.15039 7.19727 2.97852 L 16.1621 -6.82617 C 16.5527 -6.74805 16.9629 -6.8457 17.4902 -7.02148 C 18.1738 -7.25586 18.2715 -7.25586 18.3887 -7.13867 C 18.5352 -7.01172 18.4863 -6.89453 18.2422 -6.25 C 17.8809 -5.33203 17.8125 -4.79492 18.5547 -4.02344 L 19.4238 -3.13477 C 20.2734 -2.24609 21.3281 -2.26562 22.2168 -3.14453 L 25.0586 -5.97656 C 25.9473 -6.86523 25.957 -7.92969 25.0781 -8.7793 L 24.1797 -9.64844 C 23.4082 -10.4004 22.8711 -10.3516 21.9629 -9.98047 C 21.3184 -9.72656 21.2012 -9.6875 21.0645 -9.81445 C 20.9375 -9.93164 20.9473 -10.0391 21.1816 -10.7129 C 21.5332 -11.6895 21.5723 -12.2852 20.752 -13.0957 L 19.3359 -14.5117 C 15.1953 -18.6133 11.2305 -18.7402 7.65625 -15.4395 C 7.08008 -14.9023 6.99219 -14.1504 7.53906 -13.6133 L 7.79297 -13.3594 C 8.22266 -12.9297 8.86719 -12.8418 9.41406 -13.1152 C 11.0645 -13.9453 12.2559 -14.0234 13.457 -12.9785 L 13.0273 -11.416 C 12.8516 -10.8008 12.793 -10.3418 12.9199 -9.93164 L 3.18359 -1.04492 C 2.02148 0.0292969 1.93359 1.32812 2.96875 2.35352 Z M 8.96484 -14.4922 C 8.89648 -14.5703 8.86719 -14.6582 8.99414 -14.7559 C 11.709 -17.2852 15.0391 -16.8457 18.3496 -13.5254 L 19.6973 -12.168 C 20.0879 -11.7773 20.0977 -11.582 19.8828 -10.8691 C 19.6582 -10.127 19.502 -9.53125 20.1465 -8.88672 C 20.8105 -8.22266 21.2891 -8.41797 22.207 -8.63281 C 22.9004 -8.79883 23.0664 -8.79883 23.4473 -8.41797 L 24.0918 -7.77344 C 24.4043 -7.48047 24.4141 -7.32422 24.0723 -6.97266 L 21.2207 -4.13086 C 20.8887 -3.79883 20.7227 -3.79883 20.4297 -4.10156 L 19.7852 -4.75586 C 19.4141 -5.13672 19.4141 -5.30273 19.5801 -6.01562 C 19.7852 -6.88477 19.9805 -7.38281 19.3262 -8.04688 C 18.6719 -8.7207 18.0762 -8.57422 17.3438 -8.33008 C 16.5625 -8.06641 16.3281 -8.06641 15.8984 -8.49609 L 14.6094 -9.78516 C 14.1699 -10.2246 14.1309 -10.4395 14.2676 -10.9082 L 15.0293 -13.3984 C 13.3887 -15.2832 11.4941 -15.5566 9.20898 -14.4434 C 9.11133 -14.3945 9.04297 -14.4141 8.96484 -14.4922 Z M 3.96484 1.36719 C 3.52539 0.927734 3.54492 0.537109 4.14062 -0.00976562 L 13.7402 -8.81836 L 15 -7.55859 L 6.17188 2.02148 C 5.625 2.60742 5.24414 2.64648 4.79492 2.19727 Z"/></g><text class="text" style="font-weight:bold;" transform="translate(1289 1953)">Exporting</text><text class="text" transform="translate(1289 1971)">Symbols should be outlined when exporting to ensure the</text><text class="text" transform="translate(1289 1989)">design is preserved when submitting to Xcode.</text><text class="text" transform="translate(263 726)">Small</text><text class="text" transform="translate(263 1156)">Medium</text><text class="text" transform="translate(263 1586)">Large</text></g><g id="Guides"><g id="H-reference" style="fill:#27AAE1;stroke:none;" transform="translate(339 696)"><path d="M 54.9316 0 L 57.666 0 L 30.5664 -70.459 L 28.0762 -70.459 L 0.976562 0 L 3.66211 0 L 12.9395 -24.4629 L 45.7031 -24.4629 Z M 29.1992 -67.0898 L 29.4434 -67.0898 L 44.8242 -26.709 L 13.8184 -26.709 Z"/></g><line id="Baseline-S" style="fill:none;stroke:#27AAE1;opacity:1;stroke-width:0.577;" x1="263" x2="3036" y1="696" y2="696"/><line id="Capline-S" style="fill:none;stroke:#27AAE1;opacity:1;stroke-width:0.577;" x1="263" x2="3036" y1="625.541" y2="625.541"/><g id="H-reference" style="fill:#27AAE1;stroke:none;" transform="translate(339 1126)"><path d="M 54.9316 0 L 57.666 0 L 30.5664 -70.459 L 28.0762 -70.459 L 0.976562 0 L 3.66211 0 L 12.9395 -24.4629 L 45.7031 -24.4629 Z M 29.1992 -67.0898 L 29.4434 -67.0898 L 44.8242 -26.709 L 13.8184 -26.709 Z"/></g><line id="Baseline-M" style="fill:none;stroke:#27AAE1;opacity:1;stroke-width:0.577;" x1="263" x2="3036" y1="1126" y2="1126"/><line id="Capline-M" style="fill:none;stroke:#27AAE1;opacity:1;stroke-width:0.577;" x1="263" x2="3036" y1="1055.54" y2="1055.54"/><g id="H-reference" style="fill:#27AAE1;stroke:none;" transform="translate(339 1556)"><path d="M 54.9316 0 L 57.666 0 L 30.5664 -70.459 L 28.0762 -70.459 L 0.976562 0 L 3.66211 0 L 12.9395 -24.4629 L 45.7031 -24.4629 Z M 29.1992 -67.0898 L 29.4434 -67.0898 L 44.8242 -26.709 L 13.8184 -26.709 Z"/></g><line id="Baseline-L" style="fill:none;stroke:#27AAE1;opacity:1;stroke-width:0.577;" x1="263" x2="3036" y1="1556" y2="1556"/><line id="Capline-L" style="fill:none;stroke:#27AAE1;opacity:1;stroke-width:0.577;" x1="263" x2="3036" y1="1485.54" y2="1485.54"/><rect height="119.336" id="left-margin" style="fill:#00AEEF;stroke:none;opacity:0.4;" width="8.700000" x="1391" y="1030.79"/><rect height="119.336" id="right-margin" style="fill:#00AEEF;stroke:none;opacity:0.4;" width="8.700000" x="1498.7194" y="1030.79"/></g><g id="Symbols"><g id="Ultralight-S" transform="translate(515 696)"><path d="M45.927,2.051c20.459,0,37.256-16.748,37.256-37.207c0-20.459-16.797-37.207-37.256-37.207c-20.459,0-37.207,16.748-37.207,37.207c0,20.459,16.748,37.207,37.207,37.207ZM45.927-0.147c-19.287,0-34.961-15.723-34.961-35.01c0-19.287,15.674-35.01,34.961-35.01c19.336,0,35.01,15.723,35.01,35.01c0,19.287-15.674,35.01-35.01,35.01ZM45.927-30.225c3.906,0,6.396-3.027,6.396-6.982v-14.111c0-3.955-2.524-14.982-6.424-14.982c-3.8,0-6.369,11.027-6.369,14.982v14.111c0,3.955,2.539,6.982,6.397,6.982ZM36.894-14.111h18.066c0.586,0,1.025-0.439,1.025-1.025c0-0.537-0.439-0.977-1.025-0.977h-8.008v-6.934c7.568-0.488,12.891-6.006,12.891-13.232v-3.906c0-0.537-0.44-1.025-1.025-1.025c-0.537,0-1.025,0.488-1.025,1.025v3.906c0,6.836-4.443,11.23-11.865,11.23c-7.422,0-11.816-4.395-11.816-11.23v-3.906c0-0.537-0.439-1.025-1.025-1.025c-0.537,0-0.977,0.488-0.977,1.025v3.906c0,7.227,5.225,12.744,12.793,13.232v6.934h-8.008c-0.537,0-0.977,0.439-0.977,0.977c0,0.586,0.439,1.025,0.977,1.025Z"/></g><g id="Thin-S" transform="translate(811 696)"><path d="M46.343,2.46c20.691,0,37.665-16.929,37.665-37.62c0-20.691-16.974-37.62-37.665-37.62c-20.691,0-37.62,16.929-37.62,37.62c0,20.691,16.929,37.62,37.62,37.62ZM46.343-0.77c-18.95,0-34.346-15.44-34.346-34.39c0-18.95,15.396-34.39,34.346-34.39c18.994,0,34.39,15.44,34.39,34.39c0,18.95-15.396,34.39-34.39,34.39ZM46.347-30.25c3.885,0,6.472-3.006,6.472-6.999v-13.964c0-3.989-2.618-14.312-6.497-14.312c-3.788,0-6.456,10.319-6.456,14.308v13.968c0,3.993,2.64,6.999,6.481,6.999ZM37.339-14.099h18.007c0.683,0,1.211-0.524,1.211-1.198c0-0.638-0.528-1.162-1.211-1.162h-7.822v-6.504c7.568-0.539,12.95-6.035,12.95-13.325v-3.99c0-0.634-0.524-1.19-1.207-1.19c-0.638,0-1.211,0.556-1.211,1.19v3.982c0,6.676-4.465,11.041-11.713,11.041c-7.245,0-11.669-4.365-11.669-11.041v-3.982c0-0.634-0.528-1.19-1.211-1.19c-0.638,0-1.162,0.556-1.162,1.19v3.991c0,7.29,5.292,12.786,12.86,13.325v6.504h-7.822c-0.638,0-1.166,0.524-1.166,1.162c0,0.674,0.528,1.198,1.166,1.198Z"/></g><g id="Light-S" transform="translate(1107 696)"><path d="M47.035,3.141c21.077,0,38.346-17.232,38.346-38.309c0-21.077-17.269-38.309-38.346-38.309c-21.077,0-38.309,17.232-38.309,38.309c0,21.077,17.231,38.309,38.309,38.309ZM47.035-1.81c-18.388,0-33.32-14.969-33.32-33.357c0-18.388,14.932-33.357,33.32-33.357c18.425,0,33.357,14.97,33.357,33.357c0,18.388-14.932,33.357-33.357,33.357ZM47.046-30.292c3.85,0,6.599-2.971,6.599-7.027v-13.718c0-4.045-2.774-13.196-6.62-13.196c-3.768,0-6.6,9.14-6.6,13.185v13.729c0,4.056,2.809,7.027,6.621,7.027ZM38.08-14.078h17.909c0.845,0,1.52-0.664,1.52-1.486c0-0.807-0.676-1.471-1.52-1.471h-7.513v-5.787c7.568-0.623,13.048-6.085,13.048-13.48v-4.131c0-0.796-0.664-1.464-1.509-1.464c-0.807,0-1.52,0.668-1.52,1.464v4.109c0,6.409-4.499,10.725-11.461,10.725c-6.95,0-11.423-4.316-11.423-10.725v-4.108c0-0.796-0.676-1.464-1.52-1.464c-0.807,0-1.471,0.668-1.471,1.464v4.131c0,7.395,5.404,12.856,12.973,13.48v5.787h-7.513c-0.807,0-1.482,0.664-1.482,1.471c0,0.822,0.676,1.486,1.482,1.486Z"/></g><g id="Regular-S" transform="translate(1403 696)"><path d="M47.589,3.686c21.386,0,38.891-17.473,38.891-38.859c0-21.386-17.505-38.86-38.891-38.86c-21.386,0-38.859,17.473-38.859,38.86c0,21.386,17.473,38.859,38.859,38.859ZM47.589-2.642c-17.938,0-32.499-14.593-32.499-32.531c0-17.938,14.561-32.531,32.499-32.531c17.97,0,32.531,14.593,32.531,32.531c0,17.938-14.561,32.531-32.531,32.531ZM47.605-30.326c3.822,0,6.7-2.943,6.7-7.05v-13.521c0-4.09-2.9-12.304-6.718-12.304c-3.752,0-6.716,8.197-6.716,12.287v13.538c0,4.107,2.944,7.05,6.734,7.05ZM38.673-14.061h17.83c0.974,0,1.767-0.777,1.767-1.717c0-0.942-0.794-1.718-1.767-1.718h-7.266v-5.214c7.568-0.691,13.127-6.124,13.127-13.603v-4.243c0-0.925-0.777-1.683-1.751-1.683c-0.942,0-1.767,0.758-1.767,1.683v4.21c0,6.195-4.528,10.472-11.258,10.472c-6.714,0-11.226-4.277-11.226-10.472v-4.21c0-0.925-0.794-1.683-1.767-1.683c-0.942,0-1.718,0.758-1.718,1.683v4.244c0,7.48,5.494,12.913,13.063,13.603v5.214h-7.266c-0.942,0-1.735,0.777-1.735,1.718c0,0.94,0.794,1.717,1.735,1.717Z"/></g><g id="Medium-S" transform="translate(1699 696)"><path d="M48.177,4.266c21.715,0,39.471-17.73,39.471-39.445c0-21.715-17.756-39.445-39.471-39.445c-21.715,0-39.445,17.73-39.445,39.445c0,21.715,17.73,39.445,39.445,39.445ZM48.177-3.526c-17.46,0-31.627-14.193-31.627-31.653c0-17.46,14.167-31.653,31.627-31.653c17.487,0,31.653,14.193,31.653,31.653c0,17.46-14.167,31.653-31.653,31.653ZM48.2-30.362c3.792,0,6.807-2.913,6.807-7.074v-13.312c0-4.138-3.033-11.355-6.822-11.355c-3.736,0-6.839,7.195-6.839,11.332v13.335c0,4.161,3.087,7.074,6.853,7.074ZM39.304-14.043h17.747c1.111,0,2.03-0.896,2.03-1.962c0-1.085-0.919-1.981-2.03-1.981h-7.003v-4.605c7.568-0.762,13.21-6.166,13.21-13.735v-4.363c0-1.062-0.896-1.916-2.007-1.916c-1.085,0-2.03,0.854-2.03,1.916v4.317c0,5.968-4.558,10.203-11.043,10.203c-6.463,0-11.017-4.235-11.017-10.203v-4.317c0-1.062-0.919-1.916-2.03-1.916c-1.085,0-1.981,0.854-1.981,1.916v4.363c0,7.569,5.59,12.973,13.158,13.735v4.605h-7.003c-1.085,0-2.004,0.896-2.004,1.981c0,1.065,0.919,1.962,2.004,1.962Z"/></g><g id="Semibold-S" transform="translate(1995 696)"><path d="M48.592,4.674c21.947,0,39.88-17.911,39.88-39.858c0-21.947-17.933-39.858-39.88-39.858c-21.947,0-39.858,17.911-39.858,39.858c0,21.947,17.911,39.858,39.858,39.858ZM48.592-4.15c-17.123,0-31.012-13.91-31.012-31.034c0-17.123,13.889-31.034,31.012-31.034c17.145,0,31.034,13.91,31.034,31.034c0,17.123-13.889,31.034-31.034,31.034ZM48.62-30.387c3.771,0,6.883-2.892,6.883-7.091v-13.165c0-4.171-3.127-10.686-6.895-10.686c-3.724,0-6.925,6.487-6.925,10.659v13.192c0,4.198,3.188,7.091,6.938,7.091ZM39.748-14.03h17.688c1.208,0,2.216-0.981,2.216-2.134c0-1.186-1.008-2.167-2.216-2.167h-6.818v-4.175c7.568-0.813,13.269-6.195,13.269-13.828v-4.447c0-1.159-0.98-2.08-2.188-2.08c-1.186,0-2.216,0.921-2.216,2.08v4.393c0,5.808-4.579,10.013-10.891,10.013c-6.286,0-10.87-4.205-10.87-10.013v-4.393c0-1.159-1.007-2.08-2.216-2.08c-1.186,0-2.167,0.921-2.167,2.08v4.447c0,7.632,5.657,13.015,13.226,13.827v4.175h-6.818c-1.186,0-2.194,0.981-2.194,2.167c0,1.154,1.007,2.135,2.194,2.135Z"/></g><g id="Bold-S" transform="translate(2292 696)"><path d="M49.181,5.254c22.275,0,40.459-18.168,40.459-40.443c0-22.275-18.184-40.443-40.459-40.443c-22.275,0-40.443,18.168-40.443,40.443c0,22.275,18.168,40.443,40.443,40.443ZM49.181-5.033c-16.645,0-30.14-13.51-30.14-30.156c0-16.645,13.495-30.156,30.14-30.156c16.661,0,30.156,13.51,30.156,30.156c0,16.646-13.495,30.156-30.156,30.156ZM49.214-30.423c3.741,0,6.991-2.862,6.991-7.115v-12.956c0-4.219-3.26-9.737-7-9.737c-3.707,0-7.048,5.485-7.048,9.704v12.989c0,4.252,3.332,7.115,7.057,7.115ZM40.379-14.012h17.604c1.345,0,2.478-1.1,2.478-2.379c0-1.33-1.133-2.43-2.478-2.43h-6.555v-3.566c7.568-0.885,13.353-6.237,13.353-13.959v-4.567c0-1.297-1.1-2.313-2.445-2.313c-1.33,0-2.478,1.017-2.478,2.313v4.501c0,5.581-4.609,9.745-10.676,9.745c-6.035,0-10.661-4.163-10.661-9.745v-4.501c0-1.297-1.133-2.313-2.478-2.313c-1.33,0-2.43,1.017-2.43,2.313v4.567c0,7.722,5.753,13.074,13.321,13.959v3.566h-6.555c-1.33,0-2.463,1.1-2.463,2.43c0,1.279,1.133,2.379,2.462,2.379Z"/></g><g id="Heavy-S" transform="translate(2587 696)"><path d="M49.977,6.038c22.72,0,41.243-18.515,41.243-41.235c0-22.719-18.523-41.235-41.243-41.235c-22.719,0-41.235,18.515-41.235,41.235c0,22.72,18.515,41.235,41.235,41.235ZM49.977-6.229c-15.999,0-28.96-12.969-28.96-28.968c0-15.999,12.961-28.968,28.96-28.968c16.007,0,28.968,12.969,28.968,28.968c0,15.999-12.961,28.968-28.968,28.968ZM50.018-30.471c3.701,0,7.136-2.822,7.136-7.147v-12.673c0-4.284-3.441-8.454-7.14-8.454c-3.684,0-7.214,4.129-7.214,8.413v12.714c0,4.325,3.526,7.147,7.219,7.147ZM41.231-13.988h17.491c1.531,0,2.834-1.261,2.834-2.711c0-1.524-1.303-2.785-2.834-2.785h-6.199v-2.741c7.568-0.981,13.466-6.294,13.466-14.137v-4.728c0-1.482-1.261-2.628-2.793-2.628c-1.523,0-2.834,1.146-2.834,2.628v4.646c0,5.274-4.649,9.381-10.386,9.381c-5.696,0-10.378-4.107-10.378-9.381v-4.646c0-1.482-1.303-2.628-2.834-2.628c-1.524,0-2.785,1.146-2.785,2.628v4.728c0,7.843,5.882,13.155,13.451,14.137v2.741h-6.2c-1.523,0-2.826,1.261-2.826,2.785c0,1.449,1.303,2.71,2.826,2.71Z"/></g><g id="Black-S" transform="translate(2883 696)"><path d="M50.738,6.787c23.145,0,41.992-18.848,41.992-41.992c0-23.144-18.848-41.992-41.992-41.992c-23.145,0-41.992,18.848-41.992,41.992c0,23.145,18.848,41.992,41.992,41.992ZM50.738-7.373c-15.381,0-27.832-12.451-27.832-27.832c0-15.381,12.451-27.832,27.832-27.832c15.381,0,27.832,12.451,27.832,27.832c0,15.381-12.451,27.832-27.832,27.832ZM50.787-30.518c3.662,0,7.275-2.783,7.275-7.178v-12.402c0-4.346-3.613-7.227-7.275-7.227c-3.662,0-7.373,2.832-7.373,7.178v12.451c0,4.395,3.711,7.178,7.373,7.178ZM42.047-13.965h17.383c1.709,0,3.174-1.416,3.174-3.027c0-1.709-1.465-3.125-3.174-3.125h-5.859v-1.953c7.568-1.074,13.574-6.348,13.574-14.307v-4.883c0-1.66-1.416-2.93-3.125-2.93c-1.709,0-3.174,1.27-3.174,2.93v4.785c0,4.98-4.687,9.033-10.107,9.033c-5.371,0-10.107-4.053-10.107-9.033v-4.785c0-1.66-1.465-2.93-3.174-2.93c-1.709,0-3.125,1.27-3.125,2.93v4.883c0,7.959,6.006,13.232,13.574,14.307v1.953h-5.859c-1.709,0-3.174,1.416-3.174,3.125c0,1.611,1.465,3.027,3.174,3.027Z"/></g><g id="Ultralight-M" transform="translate(503 1126)"><path d="M56.086,12.224c26.038,0,47.366-21.3,47.366-47.359c0-26.038-21.328-47.338-47.366-47.338c-26.059,0-47.359,21.3-47.359,47.338c0,26.059,21.3,47.359,47.359,47.359ZM56.086,9.926c-24.838,0-45.033-20.244-45.033-45.061c0-24.817,20.195-45.04,45.033-45.04c24.845,0,45.04,20.223,45.04,45.04c0,24.817-20.195,45.061-45.04,45.061ZM56.086-28.901c4.999,0,8.158-3.868,8.158-8.935v-17.936c0-5.067-3.179-13.511-8.174-13.511c-4.959,0-8.164,8.444-8.164,13.511v17.936c0,5.067,3.187,8.935,8.179,8.935ZM44.616-8.17h22.918c0.689,0,1.231-0.521,1.231-1.21c0-0.661-0.542-1.203-1.231-1.203h-10.238v-9.149c9.668-0.571,16.5-7.601,16.5-16.821v-4.849c0-0.661-0.542-1.21-1.231-1.21c-0.661,0-1.231,0.55-1.231,1.21v4.849c0,8.813-5.682,14.427-15.249,14.427c-9.589,0-15.2-5.613-15.2-14.427v-4.849c0-0.661-0.542-1.21-1.231-1.21c-0.661,0-1.203,0.55-1.203,1.21v4.849c0,9.22,6.735,16.249,16.403,16.821v9.149h-10.238c-0.661,0-1.203,0.543-1.203,1.203c0,0.689,0.542,1.21,1.203,1.21Z"/></g><g id="Thin-M" transform="translate(799 1126)"><path d="M56.614,12.743c26.329,0,47.891-21.536,47.891-47.885c0-26.329-21.562-47.866-47.893-47.866c-26.349,0-47.883,21.536-47.883,47.866c0,26.349,21.536,47.885,47.885,47.885ZM56.614,9.135c-24.413,0-44.251-19.883-44.251-44.276c0-24.393,19.836-44.257,44.249-44.257c24.419,0,44.259,19.864,44.259,44.257c0.002,24.394-19.838,44.276-44.257,44.276ZM56.618-28.914c4.971,0,8.245-3.842,8.245-8.949v-17.799c0-5.102-3.292-13.115-8.259-13.115c-4.935,0-8.259,8.007-8.259,13.109v17.805c0,5.106,3.308,8.949,8.273,8.949ZM45.155-8.173h22.899c0.811,0,1.462-0.628,1.462-1.428c0-0.787-0.652-1.433-1.462-1.433h-10.029v-8.585c9.67-0.639,16.56-7.651,16.56-16.953v-4.98c0-0.779-0.645-1.418-1.456-1.418c-0.785,0-1.462,0.639-1.462,1.418v4.972c0,8.616-5.707,14.202-15.053,14.202c-9.361,0-15.009-5.586-15.009-14.202v-4.972c0-0.779-0.652-1.418-1.462-1.418c-0.785,0-1.431,0.639-1.431,1.418v4.98c0,9.303,6.803,16.316,16.471,16.953v8.585h-10.029c-0.785,0-1.437,0.645-1.437,1.433c0,0.8,0.652,1.428,1.437,1.428Z"/></g><g id="Light-M" transform="translate(1095 1126)"><path d="M57.483,13.598c26.808,0,48.755-21.925,48.755-48.75c0-26.808-21.947-48.734-48.76-48.734c-26.824,0-48.745,21.925-48.745,48.734c0,26.824,21.925,48.75,48.75,48.75ZM57.483,7.833c-23.712,0-42.964-19.289-42.964-42.985c0-23.696,19.247-42.969,42.959-42.969c23.718,0,42.974,19.273,42.974,42.969c0.005,23.696-19.252,42.985-42.969,42.985ZM57.495-28.936c4.925,0,8.388-3.799,8.388-8.971v-17.575c0-5.16-3.477-12.479-8.4-12.479c-4.895,0-8.415,7.302-8.415,12.462v17.591c0,5.172,3.507,8.971,8.427,8.971ZM46.04-8.18h22.871c1.011,0,1.843-0.804,1.843-1.787c0-0.995-0.832-1.81-1.843-1.81h-9.686v-7.656c9.673-0.751,16.658-7.732,16.658-17.172v-5.197c0-0.973-0.815-1.759-1.826-1.759c-0.99,0-1.843,0.786-1.843,1.759v5.174c0,8.291-5.75,13.833-14.73,13.833c-8.985,0-14.693-5.542-14.693-13.833v-5.174c0-0.973-0.832-1.759-1.843-1.759c-0.99,0-1.805,0.786-1.805,1.759v5.197c0,9.439,6.916,16.426,16.584,17.172v7.656h-9.686c-0.99,0-1.822,0.815-1.822,1.81c0,0.983,0.832,1.787,1.822,1.787Z"/></g><g id="Regular-M" transform="translate(1391 1126)"><path d="M58.202,14.304c27.204,0,49.469-22.247,49.469-49.464c0-27.204-22.265-49.451-49.476-49.451c-27.217,0-49.456,22.247-49.456,49.451c0,27.217,22.247,49.464,49.464,49.464ZM58.202,6.758c-23.134,0-41.901-18.798-41.901-41.919c0-23.12,18.759-41.905,41.893-41.905c23.138,0,41.913,18.785,41.913,41.905c0.008,23.12-18.767,41.919-41.905,41.919ZM58.219-28.953c4.888,0,8.505-3.765,8.505-8.99v-17.39c0-5.208-3.63-11.953-8.516-11.953c-4.862,0-8.544,6.72-8.544,11.928v17.415c0,5.225,3.67,8.99,8.554,8.99ZM46.771-8.186h22.847c1.177,0,2.157-0.949,2.157-2.084c0-1.167-0.98-2.122-2.157-2.122h-9.403v-6.889c9.676-0.843,16.739-7.8,16.739-17.352v-5.376c0-1.134-0.955-2.041-2.132-2.041c-1.159,0-2.157,0.907-2.157,2.041v5.341c0,8.023-5.785,13.528-14.463,13.528c-8.675,0-14.432-5.505-14.432-13.528v-5.341c0-1.134-0.98-2.041-2.157-2.041c-1.159,0-2.114,0.907-2.114,2.041v5.376c0,9.552,7.008,16.517,16.676,17.352v6.889h-9.403c-1.159,0-2.139,0.955-2.139,2.122c0,1.134,0.98,2.084,2.139,2.084Z"/></g><g id="Medium-M" transform="translate(1687 1126)"><path d="M58.882,14.973c27.579,0,50.145-22.551,50.145-50.141c0-27.579-22.566-50.13-50.155-50.13c-27.59,0-50.131,22.551-50.131,50.13c0,27.59,22.551,50.141,50.141,50.141ZM58.882,5.74c-22.586,0-40.893-18.333-40.893-40.908c0-22.575,18.298-40.897,40.883-40.897c22.59,0,40.908,18.323,40.908,40.897c0.01,22.575-18.308,40.908-40.897,40.908ZM58.905-28.97c4.852,0,8.617-3.731,8.617-9.007v-17.214c0-5.253-3.775-11.455-8.625-11.455c-4.831,0-8.666,6.169-8.666,11.422v17.247c0,5.276,3.826,9.007,8.674,9.007ZM47.464-8.191h22.825c1.334,0,2.455-1.087,2.455-2.365c0-1.329-1.121-2.417-2.455-2.417h-9.135v-6.163c9.678-0.931,16.816-7.864,16.816-17.524v-5.546c0-1.286-1.088-2.308-2.422-2.308c-1.319,0-2.455,1.022-2.455,2.308v5.5c0,7.769-5.818,13.24-14.211,13.24c-8.381,0-14.185-5.471-14.185-13.24v-5.5c0-1.286-1.121-2.308-2.455-2.308c-1.319,0-2.407,1.022-2.407,2.308v5.546c0,9.659,7.096,16.603,16.764,17.523v6.163h-9.135c-1.319,0-2.44,1.088-2.44,2.417c0,1.278,1.121,2.365,2.44,2.365Z"/></g><g id="Semibold-M" transform="translate(1983 1126)"><path d="M59.442,15.523c27.888,0,50.701-22.801,50.701-50.698c0-27.888-22.813-50.689-50.713-50.689c-27.897,0-50.687,22.801-50.687,50.689c0,27.897,22.801,50.698,50.699,50.698ZM59.442,4.901c-22.134,0-40.064-17.951-40.064-40.076c0-22.125,17.918-40.067,40.052-40.067c22.136,0,40.078,17.942,40.078,40.067c0.012,22.125-17.93,40.076-40.066,40.076ZM59.47-28.986c4.823,0,8.71-3.704,8.71-9.023v-17.062c0-5.291-3.895-10.981-8.717-10.981c-4.806,0-8.768,5.65-8.768,10.941v17.102c0,5.319,3.955,9.023,8.775,9.023ZM48.038-8.193h22.799c1.464,0,2.701-1.201,2.701-2.596c0-1.464-1.237-2.661-2.701-2.661h-8.91v-5.567c9.68-1.002,16.881-7.916,16.881-17.662v-5.682c0-1.412-1.198-2.529-2.661-2.529c-1.452,0-2.701,1.117-2.701,2.529v5.627c0,7.559-5.846,12.999-14.003,12.999c-8.139,0-13.982-5.441-13.982-12.999v-5.627c0-1.412-1.238-2.529-2.701-2.529c-1.452,0-2.649,1.117-2.649,2.529v5.682c0,9.747,7.171,16.672,16.839,17.662v5.567h-8.91c-1.452,0-2.689,1.198-2.689,2.661c0,1.396,1.238,2.596,2.689,2.596Z"/></g><g id="Bold-M" transform="translate(2279 1126)"><path d="M60.122,16.192c28.263,0,51.377-23.106,51.377-51.375c0-28.263-23.114-51.369-51.392-51.369c-28.269,0-51.361,23.106-51.361,51.369c0,28.269,23.106,51.375,51.375,51.375ZM60.122,3.882c-21.586,0-39.057-17.486-39.057-39.065c0-21.579,17.457-39.058,39.042-39.058c21.588,0,39.073,17.479,39.073,39.058c0.014,21.579-17.471,39.065-39.059,39.065ZM60.156-29.003c4.787,0,8.822-3.671,8.822-9.041v-16.887c0-5.336-4.04-10.483-8.826-10.483c-4.775,0-8.891,5.099-8.891,10.435v16.935c0,5.37,4.11,9.041,8.895,9.041ZM48.731-8.198h22.776c1.621,0,2.999-1.338,2.999-2.877c0-1.626-1.378-2.957-2.999-2.957h-8.642v-4.84c9.682-1.09,16.958-7.98,16.958-17.834v-5.852c0-1.564-1.33-2.796-2.951-2.796c-1.612,0-2.999,1.232-2.999,2.796v5.785c0,7.305-5.879,12.711-13.751,12.711c-7.845,0-13.735-5.406-13.735-12.711v-5.785c0-1.564-1.378-2.796-2.999-2.796c-1.612,0-2.942,1.232-2.942,2.796v5.852c0,9.854,7.259,16.758,16.927,17.834v4.84h-8.642c-1.612,0-2.99,1.33-2.99,2.957c0,1.539,1.378,2.877,2.99,2.877Z"/></g><g id="Heavy-M" transform="translate(2575 1126)"><path d="M61.181,17.232c28.846,0,52.429-23.58,52.429-52.428c0-28.846-23.583-52.425-52.447-52.425c-28.849,0-52.41,23.579-52.41,52.425c0,28.849,23.58,52.428,52.428,52.428ZM61.181,2.298c-20.733,0-37.49-16.763-37.49-37.494c0-20.73,16.739-37.491,37.472-37.491c20.734,0,37.509,16.76,37.509,37.491c0.018,20.73-16.757,37.494-37.491,37.494ZM61.223-29.029c4.732,0,8.995-3.619,8.995-9.068v-16.614c0-5.407-4.266-9.708-8.997-9.708c-4.727,0-9.081,4.241-9.081,9.648v16.674c0,5.449,4.352,9.068,9.083,9.068ZM49.808-8.206h22.742c1.865,0,3.462-1.552,3.462-3.314c0-1.879-1.597-3.416-3.462-3.416h-8.224v-3.71c9.686-1.226,17.077-8.08,17.077-18.1v-6.116c0-1.801-1.537-3.211-3.402-3.211c-1.861,0-3.463,1.411-3.463,3.211v6.031c0,6.909-5.93,12.262-13.357,12.262c-7.388,0-13.351-5.352-13.351-12.262v-6.031c0-1.801-1.597-3.211-3.462-3.211c-1.861,0-3.398,1.411-3.398,3.211v6.116c0,10.02,7.396,16.892,17.064,18.1v3.71h-8.225c-1.861,0-3.459,1.537-3.459,3.416c0,1.762,1.597,3.314,3.459,3.314Z"/></g><g id="Black-M" transform="translate(2871 1126)"><path d="M61.976,18.014c29.284,0,53.219-23.936,53.219-53.219c0-29.284-23.936-53.219-53.24-53.219c-29.283,0-53.198,23.936-53.198,53.219c0,29.284,23.936,53.219,53.219,53.219ZM61.976,1.108c-20.093,0-36.313-16.22-36.313-36.313c0-20.093,16.199-36.313,36.292-36.313c20.093,0,36.334,16.22,36.334,36.313c0.021,20.093-16.22,36.313-36.313,36.313ZM62.024-29.048c4.69,0,9.125-3.58,9.125-9.089v-16.41c0-5.459-4.435-9.138-9.125-9.138c-4.69,0-9.223,3.608-9.223,9.067v16.48c0,5.508,4.533,9.089,9.223,9.089ZM50.617-8.213h22.717c2.048,0,3.81-1.713,3.81-3.643c0-2.069-1.762-3.761-3.81-3.761h-7.912v-2.86c9.689-1.328,17.166-8.155,17.166-18.3v-6.315c0-1.978-1.692-3.524-3.74-3.524c-2.049,0-3.81,1.545-3.81,3.524v6.217c0,6.613-5.969,11.925-13.062,11.925c-7.044,0-13.062-5.312-13.062-11.925v-6.217c0-1.978-1.762-3.524-3.81-3.524c-2.048,0-3.74,1.545-3.74,3.524v6.315c0,10.145,7.498,16.993,17.166,18.3v2.86h-7.912c-2.048,0-3.81,1.692-3.81,3.761c0,1.929,1.762,3.643,3.81,3.643Z"/></g><g id="Ultralight-L" transform="translate(487 1556)"><path d="M69.575,25.732c33.447,0,60.791-27.344,60.791-60.84c0-33.447-27.344-60.791-60.791-60.791c-33.496,0-60.84,27.344-60.84,60.791c0,33.496,27.344,60.84,60.84,60.84ZM69.575,23.242c-32.178,0-58.35-26.221-58.35-58.35c0-32.129,26.172-58.301,58.35-58.301c32.129,0,58.301,26.172,58.301,58.301c0,32.129-26.172,58.35-58.301,58.35ZM69.575-27.148c6.445,0,10.498-4.98,10.498-11.523v-22.998c0-6.543-4.053-11.524-10.498-11.524c-6.494,0-10.547,4.98-10.547,11.524v22.998c0,6.543,4.053,11.523,10.547,11.523ZM54.878-0.293h29.346c0.83,0,1.514-0.635,1.514-1.465c0-0.83-0.684-1.514-1.514-1.514h-13.184v-12.061c12.451-0.684,21.289-9.717,21.289-21.582v-6.104c0-0.83-0.684-1.465-1.514-1.465c-0.83,0-1.514,0.635-1.514,1.465v6.103c0,11.426-7.324,18.652-19.727,18.652c-12.451,0-19.678-7.227-19.678-18.652v-6.104c0-0.83-0.684-1.465-1.514-1.465c-0.83,0-1.514,0.635-1.514,1.465v6.103c0,11.865,8.74,20.898,21.191,21.582v12.061h-13.184c-0.83,0-1.514,0.684-1.514,1.514c0,0.83,0.684,1.465,1.514,1.465Z"/></g><g id="Thin-L" transform="translate(783 1556)"><path d="M70.15,26.296c33.76,0,61.366-27.606,61.366-61.411c0-33.76-27.607-61.366-61.37-61.366c-33.805,0-61.408,27.606-61.408,61.366c0,33.805,27.606,61.411,61.411,61.411ZM70.15,22.385c-31.718,0-57.5-25.827-57.5-57.5c0-31.673,25.778-57.455,57.496-57.455c31.673,0,57.459,25.782,57.459,57.455c0.004,31.673-25.782,57.5-57.455,57.5ZM70.153-27.145c6.415,0,10.583-4.954,10.583-11.531v-22.898c0-6.574-4.169-11.535-10.583-11.535c-6.459,0-10.636,4.953-10.636,11.527v22.905c0,6.578,4.176,11.531,10.636,11.531ZM55.437-0.316h29.38c0.961,0,1.761-0.751,1.761-1.701c0-0.965-0.799-1.757-1.761-1.757h-12.983v-11.431c12.455-0.761,21.339-9.782,21.339-21.74v-6.27c0-0.954-0.792-1.689-1.753-1.689c-0.961,0-1.761,0.735-1.761,1.689v6.262c0,11.217-7.351,18.425-19.51,18.425c-12.2,0-19.465-7.207-19.465-18.425v-6.262c0-0.954-0.799-1.689-1.761-1.689c-0.961,0-1.753,0.735-1.753,1.689v6.27c0,11.958,8.798,20.983,21.249,21.74v11.431h-12.983c-0.961,0-1.761,0.792-1.761,1.757c0,0.95,0.799,1.701,1.761,1.701Z"/></g><g id="Light-L" transform="translate(1079 1556)"><path d="M71.257,27.384c34.363,0,62.476-28.113,62.476-62.514c0-34.364-28.113-62.476-62.487-62.476c-34.401,0-62.502,28.113-62.502,62.476c0,34.401,28.113,62.514,62.514,62.514ZM71.257,20.731c-30.832,0-55.861-25.067-55.861-55.861c0-30.794,25.018-55.824,55.85-55.824c30.794,0,55.835,25.03,55.835,55.824c0.011,30.794-25.03,55.861-55.824,55.861ZM71.268-27.137c6.355,0,10.747-4.901,10.747-11.546v-22.704c0-6.633-4.392-11.557-10.747-11.557c-6.392,0-10.807,4.901-10.807,11.535v22.727c0,6.645,4.415,11.546,10.807,11.546ZM56.515-0.361h29.448c1.215,0,2.238-0.974,2.238-2.155c0-1.226-1.023-2.226-2.237-2.226h-12.595v-10.217c12.463-0.91,21.436-9.909,21.436-22.046v-6.59c0-1.192-1-2.121-2.215-2.121c-1.215,0-2.238,0.929-2.238,2.121v6.567c0,10.815-7.403,17.985-19.093,17.985c-11.716,0-19.056-7.17-19.056-17.985v-6.567c0-1.192-1.023-2.121-2.237-2.121c-1.215,0-2.215,0.929-2.215,2.121v6.59c0,12.137,8.91,21.147,21.361,22.046v10.217h-12.596c-1.215,0-2.238,1-2.238,2.226c0,1.181,1.023,2.155,2.237,2.155Z"/></g><g id="Regular-L" transform="translate(1374 1556)"><path d="M72.119,28.23c34.832,0,63.339-28.507,63.339-63.371c0-34.833-28.507-63.339-63.356-63.339c-34.864,0-63.354,28.507-63.354,63.339c0,34.864,28.507,63.371,63.371,63.371ZM72.119,19.445c-30.142,0-54.587-24.476-54.587-54.587c0-30.111,24.427-54.555,54.57-54.555c30.111,0,54.572,24.444,54.572,54.555c0.017,30.111-24.444,54.587-54.555,54.587ZM72.136-27.131c6.309,0,10.874-4.861,10.874-11.558v-22.553c0-6.68-4.566-11.575-10.874-11.575c-6.34,0-10.94,4.861-10.94,11.541v22.588c0,6.697,4.6,11.558,10.94,11.558ZM57.353-0.396h29.5c1.412,0,2.608-1.148,2.608-2.508c0-1.429-1.197-2.591-2.608-2.591h-12.294v-9.273c12.468-1.026,21.511-10.008,21.511-22.283v-6.839c0-1.377-1.163-2.457-2.574-2.457c-1.412,0-2.608,1.079-2.608,2.457v6.805c0,10.502-7.444,17.643-18.769,17.643c-11.339,0-18.737-7.141-18.737-17.643v-6.805c0-1.377-1.197-2.457-2.608-2.457c-1.412,0-2.574,1.079-2.574,2.457v6.839c0,12.276,8.997,21.275,21.448,22.283v9.273h-12.294c-1.412,0-2.608,1.162-2.608,2.591c0,1.36,1.197,2.508,2.608,2.508Z"/></g><g id="Medium-L" transform="translate(1670 1556)"><path d="M72.939,29.035c35.279,0,64.161-28.882,64.161-64.188c0-35.28-28.882-64.161-64.184-64.161c-35.306,0-64.165,28.882-64.165,64.161c0,35.306,28.882,64.188,64.188,64.188ZM72.939,18.22c-29.486,0-53.373-23.913-53.373-53.373c0-29.46,23.865-53.347,53.35-53.347c29.46,0,53.369,23.887,53.369,53.347c0.023,29.46-23.887,53.373-53.347,53.373ZM72.962-27.126c6.264,0,10.996-4.822,10.996-11.569v-22.41c0-6.724-4.731-11.591-10.996-11.591c-6.291,0-11.067,4.822-11.067,11.546v22.455c0,6.747,4.777,11.569,11.067,11.569ZM58.151-0.429h29.549c1.599,0,2.961-1.313,2.961-2.845c0-1.622-1.362-2.939-2.961-2.939h-12.007v-8.373c12.474-1.136,21.583-10.101,21.583-22.51v-7.076c0-1.554-1.317-2.777-2.916-2.777c-1.599,0-2.962,1.223-2.962,2.777v7.031c0,10.204-7.482,17.318-18.46,17.318c-10.981,0-18.434-7.113-18.434-17.318v-7.031c0-1.554-1.362-2.777-2.961-2.777c-1.599,0-2.916,1.223-2.916,2.777v7.076c0,12.408,9.079,21.396,21.531,22.51v8.373h-12.007c-1.599,0-2.961,1.317-2.961,2.939c0,1.531,1.362,2.845,2.961,2.845Z"/></g><g id="Semibold-L" transform="translate(1967 1556)"><path d="M73.636,29.72c35.659,0,64.86-29.201,64.86-64.882c0-35.66-29.201-64.86-64.887-64.86c-35.681,0-64.855,29.201-64.855,64.86c0,35.681,29.201,64.882,64.882,64.882ZM73.636,17.179c-28.928,0-52.341-23.435-52.341-52.341c0-28.906,23.386-52.32,52.314-52.32c28.906,0,52.347,23.414,52.347,52.32c0.027,28.906-23.413,52.341-52.32,52.341ZM73.664-27.121c6.227,0,11.099-4.789,11.099-11.578v-22.288c0-6.762-4.872-11.605-11.099-11.605c-6.248,0-11.175,4.789-11.175,11.551v22.343c0,6.789,4.927,11.578,11.175,11.578ZM58.83-0.457h29.591c1.759,0,3.261-1.454,3.261-3.131c0-1.786-1.503-3.234-3.261-3.234h-11.763v-7.609c12.478-1.23,21.644-10.181,21.644-22.702v-7.278c0-1.704-1.448-3.049-3.207-3.049c-1.759,0-3.262,1.345-3.262,3.049v7.223c0,9.951-7.515,17.041-18.197,17.041c-10.676,0-18.176-7.09-18.176-17.041v-7.223c0-1.704-1.503-3.049-3.262-3.049c-1.759,0-3.207,1.345-3.207,3.049v7.278c0,12.521,9.15,21.499,21.601,22.702v7.609h-11.764c-1.759,0-3.261,1.448-3.261,3.234c0,1.677,1.503,3.131,3.261,3.131Z"/></g><g id="Bold-L" transform="translate(2262 1556)"><path d="M74.457,30.525c36.106,0,65.682-29.576,65.682-65.698c0-36.106-29.576-65.682-65.715-65.682c-36.122,0-65.666,29.576-65.666,65.682c0,36.122,29.576,65.698,65.698,65.698ZM74.457,15.954c-28.271,0-51.127-22.872-51.127-51.127c0-28.255,22.824-51.111,51.095-51.111c28.255,0,51.144,22.856,51.144,51.111c0.033,28.255-22.856,51.127-51.111,51.127ZM74.49-27.116c6.183,0,11.22-4.751,11.22-11.589v-22.145c0-6.806-5.038-11.622-11.22-11.622c-6.199,0-11.302,4.751-11.302,11.556v22.21c0,6.838,5.103,11.589,11.302,11.589ZM59.628-0.49h29.641c1.946,0,3.615-1.62,3.615-3.467c0-1.979-1.668-3.582-3.615-3.582h-11.476v-6.71c12.484-1.34,21.716-10.275,21.716-22.928v-7.515c0-1.881-1.603-3.369-3.549-3.369c-1.947,0-3.615,1.488-3.615,3.369v7.449c0,9.653-7.554,16.715-17.888,16.715c-10.317,0-17.872-7.062-17.872-16.715v-7.449c0-1.881-1.668-3.369-3.615-3.369c-1.946,0-3.549,1.488-3.549,3.369v7.515c0,12.653,9.233,21.621,21.684,22.928v6.71h-11.477c-1.946,0-3.615,1.603-3.615,3.582c0,1.848,1.668,3.467,3.615,3.467Z"/></g><g id="Heavy-L" transform="translate(2558 1556)"><path d="M75.728,31.774c36.799,0,66.957-30.158,66.957-66.964c0-36.799-30.157-66.956-66.998-66.956c-36.807,0-66.923,30.157-66.923,66.956c0,36.807,30.158,66.964,66.964,66.964ZM75.728,14.056c-27.254,0-49.246-22-49.246-49.246c0-27.246,21.951-49.239,49.205-49.239c27.246,0,49.28,21.993,49.28,49.239c0.041,27.246-21.992,49.246-49.239,49.246ZM75.77-27.107c6.114,0,11.408-4.691,11.408-11.606v-21.922c0-6.874-5.294-11.648-11.408-11.648c-6.122,0-11.499,4.691-11.499,11.565v22.005c0,6.915,5.377,11.606,11.499,11.606ZM60.866-0.541h29.718c2.237,0,4.162-1.876,4.162-3.989c0-2.278-1.925-4.121-4.162-4.121h-11.032v-5.316c12.493-1.511,21.827-10.42,21.827-23.279v-7.883c0-2.154-1.842-3.865-4.079-3.865c-2.237,0-4.162,1.711-4.162,3.865v7.8c0,9.191-7.614,16.211-17.409,16.211c-9.761,0-17.402-7.02-17.402-16.211v-7.8c0-2.154-1.925-3.865-4.162-3.865c-2.237,0-4.079,1.711-4.079,3.865v7.883c0,12.858,9.361,21.809,21.812,23.279v5.316h-11.032c-2.237,0-4.162,1.842-4.162,4.121c0,2.113,1.925,3.989,4.162,3.989Z"/></g><g id="Black-L" transform="translate(2854 1556)"><path d="M76.836,32.861c37.402,0,68.066-30.664,68.066-68.066c0-37.402-30.664-68.066-68.115-68.066c-37.402,0-68.018,30.664-68.018,68.066c0,37.402,30.664,68.066,68.066,68.066ZM76.836,12.402c-26.367,0-47.607-21.24-47.607-47.607c0-26.367,21.191-47.607,47.559-47.607c26.367,0,47.656,21.24,47.656,47.607c0.049,26.367-21.24,47.607-47.607,47.607ZM76.885-27.1c6.055,0,11.572-4.639,11.572-11.621v-21.728c0-6.934-5.518-11.67-11.572-11.67c-6.055,0-11.67,4.639-11.67,11.572v21.826c0,6.982,5.615,11.621,11.67,11.621ZM61.943-0.586h29.785c2.49,0,4.639-2.1,4.639-4.443c0-2.539-2.148-4.59-4.639-4.59h-10.645v-4.102c12.5-1.66,21.924-10.547,21.924-23.584v-8.203c0-2.393-2.051-4.297-4.541-4.297c-2.491,0-4.639,1.904-4.639,4.297v8.106c0,8.789-7.666,15.771-16.992,15.771c-9.277,0-16.992-6.982-16.992-15.771v-8.105c0-2.393-2.148-4.297-4.639-4.297c-2.49,0-4.541,1.904-4.541,4.297v8.203c0,13.037,9.473,21.973,21.924,23.584v4.102h-10.645c-2.49,0-4.639,2.051-4.639,4.59c0,2.344,2.148,4.443,4.639,4.443Z"/></g></g></svg>