<?xml version="1.0" encoding="UTF-8" standalone="no"?>
<svg
   xmlns:dc="http://purl.org/dc/elements/1.1/"
   xmlns:cc="http://creativecommons.org/ns#"
   xmlns:rdf="http://www.w3.org/1999/02/22-rdf-syntax-ns#"
   xmlns:svg="http://www.w3.org/2000/svg"
   xmlns="http://www.w3.org/2000/svg"
   xmlns:sodipodi="http://sodipodi.sourceforge.net/DTD/sodipodi-0.dtd"
   xmlns:inkscape="http://www.inkscape.org/namespaces/inkscape"
   version="1.1"
   width="3300"
   height="2200"
   id="svg504"
   sodipodi:docname="mic.circle2.svg"
   inkscape:version="1.0rc1 (09960d6, 2020-04-09)">
  <metadata
     id="metadata510">
    <rdf:RDF>
      <cc:Work
         rdf:about="">
        <dc:format>image/svg+xml</dc:format>
        <dc:type
           rdf:resource="http://purl.org/dc/dcmitype/StillImage" />
        <dc:title />
      </cc:Work>
    </rdf:RDF>
  </metadata>
  <defs
     id="defs508" />
  <sodipodi:namedview
     inkscape:document-rotation="0"
     pagecolor="#ffffff"
     bordercolor="#666666"
     borderopacity="1"
     objecttolerance="10"
     gridtolerance="10"
     guidetolerance="10"
     inkscape:pageopacity="0"
     inkscape:pageshadow="2"
     inkscape:window-width="1791"
     inkscape:window-height="927"
     id="namedview506"
     showgrid="false"
     inkscape:zoom="1"
     inkscape:cx="1171.2433"
     inkscape:cy="1180"
     inkscape:window-x="2256"
     inkscape:window-y="96"
     inkscape:window-maximized="0"
     inkscape:current-layer="svg504" />
  <!--glyph: "uni1004A9.medium", point size: 100.000000, font version: "Version 15.0d7e11", template writer version: "5"-->
  <g
     id="Notes">
    <rect
       height="2200"
       id="artboard"
       style="fill:white;opacity:1"
       width="3300"
       x="0"
       y="0" />
    <line
       id=""
       style="fill:none;stroke:black;opacity:1;stroke-width:0.5;"
       x1="263"
       x2="3036"
       y1="292"
       y2="292" />
    <text
       style="stroke:none;fill:black;font-family:-apple-system,&quot;SF Pro Display&quot;,&quot;SF Pro Text&quot;,Helvetica,sans-serif;font-weight:bold;"
       transform="matrix(1 0 0 1 263 322)"
       id="text320">Weight/Scale Variations</text>
    <text
       style="stroke:none;fill:black;font-family:-apple-system,&quot;SF Pro Display&quot;,&quot;SF Pro Text&quot;,Helvetica,sans-serif;text-anchor:middle;"
       transform="matrix(1 0 0 1 559.711 322)"
       id="text322">Ultralight</text>
    <text
       style="stroke:none;fill:black;font-family:-apple-system,&quot;SF Pro Display&quot;,&quot;SF Pro Text&quot;,Helvetica,sans-serif;text-anchor:middle;"
       transform="matrix(1 0 0 1 856.422 322)"
       id="text324">Thin</text>
    <text
       style="stroke:none;fill:black;font-family:-apple-system,&quot;SF Pro Display&quot;,&quot;SF Pro Text&quot;,Helvetica,sans-serif;text-anchor:middle;"
       transform="matrix(1 0 0 1 1153.13 322)"
       id="text326">Light</text>
    <text
       style="stroke:none;fill:black;font-family:-apple-system,&quot;SF Pro Display&quot;,&quot;SF Pro Text&quot;,Helvetica,sans-serif;text-anchor:middle;"
       transform="matrix(1 0 0 1 1449.84 322)"
       id="text328">Regular</text>
    <text
       style="stroke:none;fill:black;font-family:-apple-system,&quot;SF Pro Display&quot;,&quot;SF Pro Text&quot;,Helvetica,sans-serif;text-anchor:middle;"
       transform="matrix(1 0 0 1 1746.56 322)"
       id="text330">Medium</text>
    <text
       style="stroke:none;fill:black;font-family:-apple-system,&quot;SF Pro Display&quot;,&quot;SF Pro Text&quot;,Helvetica,sans-serif;text-anchor:middle;"
       transform="matrix(1 0 0 1 2043.27 322)"
       id="text332">Semibold</text>
    <text
       style="stroke:none;fill:black;font-family:-apple-system,&quot;SF Pro Display&quot;,&quot;SF Pro Text&quot;,Helvetica,sans-serif;text-anchor:middle;"
       transform="matrix(1 0 0 1 2339.98 322)"
       id="text334">Bold</text>
    <text
       style="stroke:none;fill:black;font-family:-apple-system,&quot;SF Pro Display&quot;,&quot;SF Pro Text&quot;,Helvetica,sans-serif;text-anchor:middle;"
       transform="matrix(1 0 0 1 2636.69 322)"
       id="text336">Heavy</text>
    <text
       style="stroke:none;fill:black;font-family:-apple-system,&quot;SF Pro Display&quot;,&quot;SF Pro Text&quot;,Helvetica,sans-serif;text-anchor:middle;"
       transform="matrix(1 0 0 1 2933.4 322)"
       id="text338">Black</text>
    <line
       id="line340"
       style="fill:none;stroke:black;opacity:1;stroke-width:0.5;"
       x1="263"
       x2="3036"
       y1="1903"
       y2="1903" />
    <g
       id="g344"
       transform="matrix(1 0 0 1 263 1933)">
      <path
         d="M 9.24805 0.830078 C 13.5547 0.830078 17.1387 -2.74414 17.1387 -7.05078 C 17.1387 -11.3574 13.5449 -14.9316 9.23828 -14.9316 C 4.94141 -14.9316 1.36719 -11.3574 1.36719 -7.05078 C 1.36719 -2.74414 4.95117 0.830078 9.24805 0.830078 Z M 9.24805 -0.654297 C 5.70312 -0.654297 2.87109 -3.49609 2.87109 -7.05078 C 2.87109 -10.6055 5.69336 -13.4473 9.23828 -13.4473 C 12.793 -13.4473 15.6348 -10.6055 15.6445 -7.05078 C 15.6543 -3.49609 12.8027 -0.654297 9.24805 -0.654297 Z M 9.22852 -3.42773 C 9.69727 -3.42773 9.9707 -3.74023 9.9707 -4.25781 L 9.9707 -6.31836 L 12.1973 -6.31836 C 12.6953 -6.31836 13.0371 -6.57227 13.0371 -7.04102 C 13.0371 -7.51953 12.7148 -7.7832 12.1973 -7.7832 L 9.9707 -7.7832 L 9.9707 -10.0098 C 9.9707 -10.5273 9.69727 -10.8496 9.22852 -10.8496 C 8.75977 -10.8496 8.50586 -10.5078 8.50586 -10.0098 L 8.50586 -7.7832 L 6.29883 -7.7832 C 5.78125 -7.7832 5.44922 -7.51953 5.44922 -7.04102 C 5.44922 -6.57227 5.80078 -6.31836 6.29883 -6.31836 L 8.50586 -6.31836 L 8.50586 -4.25781 C 8.50586 -3.75977 8.75977 -3.42773 9.22852 -3.42773 Z"
         id="path342" />
    </g>
    <g
       id="g348"
       transform="matrix(1 0 0 1 281.506 1933)">
      <path
         d="M 11.709 2.91016 C 17.1582 2.91016 21.6699 -1.60156 21.6699 -7.05078 C 21.6699 -12.4902 17.1484 -17.0117 11.6992 -17.0117 C 6.25977 -17.0117 1.74805 -12.4902 1.74805 -7.05078 C 1.74805 -1.60156 6.26953 2.91016 11.709 2.91016 Z M 11.709 1.25 C 7.09961 1.25 3.41797 -2.44141 3.41797 -7.05078 C 3.41797 -11.6504 7.08984 -15.3516 11.6992 -15.3516 C 16.3086 -15.3516 20 -11.6504 20.0098 -7.05078 C 20.0195 -2.44141 16.3184 1.25 11.709 1.25 Z M 11.6895 -2.41211 C 12.207 -2.41211 12.5195 -2.77344 12.5195 -3.33984 L 12.5195 -6.23047 L 15.5762 -6.23047 C 16.123 -6.23047 16.5039 -6.51367 16.5039 -7.03125 C 16.5039 -7.55859 16.1426 -7.86133 15.5762 -7.86133 L 12.5195 -7.86133 L 12.5195 -10.9277 C 12.5195 -11.5039 12.207 -11.8555 11.6895 -11.8555 C 11.1719 -11.8555 10.8789 -11.4844 10.8789 -10.9277 L 10.8789 -7.86133 L 7.83203 -7.86133 C 7.26562 -7.86133 6.89453 -7.55859 6.89453 -7.03125 C 6.89453 -6.51367 7.28516 -6.23047 7.83203 -6.23047 L 10.8789 -6.23047 L 10.8789 -3.33984 C 10.8789 -2.79297 11.1719 -2.41211 11.6895 -2.41211 Z"
         id="path346" />
    </g>
    <g
       id="g352"
       transform="matrix(1 0 0 1 304.924 1933)">
      <path
         d="M 14.9707 5.67383 C 21.9336 5.67383 27.6953 -0.078125 27.6953 -7.04102 C 27.6953 -14.0039 21.9238 -19.7559 14.9609 -19.7559 C 8.00781 -19.7559 2.25586 -14.0039 2.25586 -7.04102 C 2.25586 -0.078125 8.01758 5.67383 14.9707 5.67383 Z M 14.9707 3.85742 C 8.93555 3.85742 4.08203 -1.00586 4.08203 -7.04102 C 4.08203 -13.0762 8.92578 -17.9395 14.9609 -17.9395 C 21.0059 -17.9395 25.8594 -13.0762 25.8691 -7.04102 C 25.8789 -1.00586 21.0156 3.85742 14.9707 3.85742 Z M 14.9512 -1.06445 C 15.5176 -1.06445 15.8691 -1.45508 15.8691 -2.06055 L 15.8691 -6.13281 L 20.1074 -6.13281 C 20.6934 -6.13281 21.1133 -6.46484 21.1133 -7.02148 C 21.1133 -7.59766 20.7227 -7.93945 20.1074 -7.93945 L 15.8691 -7.93945 L 15.8691 -12.1875 C 15.8691 -12.8027 15.5176 -13.1934 14.9512 -13.1934 C 14.3848 -13.1934 14.0625 -12.7832 14.0625 -12.1875 L 14.0625 -7.93945 L 9.83398 -7.93945 C 9.21875 -7.93945 8.80859 -7.59766 8.80859 -7.02148 C 8.80859 -6.46484 9.23828 -6.13281 9.83398 -6.13281 L 14.0625 -6.13281 L 14.0625 -2.06055 C 14.0625 -1.47461 14.3848 -1.06445 14.9512 -1.06445 Z"
         id="path350" />
    </g>
    <text
       style="stroke:none;fill:black;font-family:-apple-system,&quot;SF Pro Display&quot;,&quot;SF Pro Text&quot;,Helvetica,sans-serif;font-weight:bold;"
       transform="matrix(1 0 0 1 263 1953)"
       id="text354">Design Variations</text>
    <text
       style="stroke:none;fill:black;font-family:-apple-system,&quot;SF Pro Display&quot;,&quot;SF Pro Text&quot;,Helvetica,sans-serif;"
       transform="matrix(1 0 0 1 263 1971)"
       id="text356">Symbols are supported in up to nine weights and three scales.</text>
    <text
       style="stroke:none;fill:black;font-family:-apple-system,&quot;SF Pro Display&quot;,&quot;SF Pro Text&quot;,Helvetica,sans-serif;"
       transform="matrix(1 0 0 1 263 1989)"
       id="text358">For optimal layout with text and other symbols, vertically align</text>
    <text
       style="stroke:none;fill:black;font-family:-apple-system,&quot;SF Pro Display&quot;,&quot;SF Pro Text&quot;,Helvetica,sans-serif;"
       transform="matrix(1 0 0 1 263 2007)"
       id="text360">symbols with the adjacent text.</text>
    <rect
       height="14"
       id="rect362"
       style="fill:#00AEEF;stroke:none;opacity:0.4;"
       width="3"
       x="776"
       y="1919" />
    <g
       id="g366"
       transform="matrix(1 0 0 1 779 1933)">
      <path
         d="M 10.5273 0 L 12.373 0 L 7.17773 -14.0918 L 5.43945 -14.0918 L 0.244141 0 L 2.08984 0 L 3.50586 -4.0332 L 9.11133 -4.0332 Z M 6.2793 -11.9531 L 6.33789 -11.9531 L 8.59375 -5.52734 L 4.02344 -5.52734 Z"
         id="path364" />
    </g>
    <rect
       height="14"
       id="rect368"
       style="fill:#00AEEF;stroke:none;opacity:0.4;"
       width="3"
       x="791.617"
       y="1919" />
    <text
       style="stroke:none;fill:black;font-family:-apple-system,&quot;SF Pro Display&quot;,&quot;SF Pro Text&quot;,Helvetica,sans-serif;font-weight:bold;"
       transform="matrix(1 0 0 1 776 1953)"
       id="text370">Margins</text>
    <text
       style="stroke:none;fill:black;font-family:-apple-system,&quot;SF Pro Display&quot;,&quot;SF Pro Text&quot;,Helvetica,sans-serif;"
       transform="matrix(1 0 0 1 776 1971)"
       id="text372">Leading and trailing margins on the left and right side of each symbol</text>
    <text
       style="stroke:none;fill:black;font-family:-apple-system,&quot;SF Pro Display&quot;,&quot;SF Pro Text&quot;,Helvetica,sans-serif;"
       transform="matrix(1 0 0 1 776 1989)"
       id="text374">can be adjusted by modifying the width of the blue rectangles.</text>
    <text
       style="stroke:none;fill:black;font-family:-apple-system,&quot;SF Pro Display&quot;,&quot;SF Pro Text&quot;,Helvetica,sans-serif;"
       transform="matrix(1 0 0 1 776 2007)"
       id="text376">Modifications are automatically applied proportionally to all</text>
    <text
       style="stroke:none;fill:black;font-family:-apple-system,&quot;SF Pro Display&quot;,&quot;SF Pro Text&quot;,Helvetica,sans-serif;"
       transform="matrix(1 0 0 1 776 2025)"
       id="text378">scales and weights.</text>
    <g
       id="g382"
       transform="matrix(1 0 0 1 1289 1933)">
      <path
         d="M 2.83203 3.11523 L 4.375 4.6582 C 5.22461 5.48828 6.19141 5.41992 7.06055 4.46289 L 17.2754 -6.66016 C 17.7051 -6.36719 18.0957 -6.37695 18.5645 -6.47461 L 19.6094 -6.68945 L 20.3027 -5.99609 L 20.2539 -5.47852 C 20.1855 -4.95117 20.3516 -4.53125 20.8496 -4.0332 L 21.6602 -3.22266 C 22.168 -2.71484 22.8223 -2.68555 23.3008 -3.16406 L 26.5527 -6.41602 C 27.0312 -6.89453 27.0117 -7.54883 26.5039 -8.05664 L 25.6836 -8.87695 C 25.1855 -9.375 24.7754 -9.55078 24.2383 -9.47266 L 23.7109 -9.41406 L 23.0566 -10.0781 L 23.3398 -11.2207 C 23.4863 -11.7871 23.3398 -12.2559 22.7148 -12.8613 L 20.3027 -15.2539 C 16.7578 -18.7793 12.2266 -18.6719 9.11133 -15.5371 C 8.69141 -15.1074 8.64258 -14.5215 8.91602 -14.0918 C 9.15039 -13.7207 9.62891 -13.4961 10.2734 -13.6621 C 11.7871 -14.043 13.3008 -13.9258 14.7852 -12.9199 L 14.1602 -11.3379 C 13.9258 -10.752 13.9453 -10.2734 14.1797 -9.83398 L 3.01758 0.439453 C 2.08008 1.30859 1.97266 2.25586 2.83203 3.11523 Z M 10.6738 -15.1465 C 13.3398 -17.1387 16.6504 -16.8262 19.0527 -14.4141 L 21.6797 -11.8066 C 21.9141 -11.5723 21.9434 -11.3867 21.8848 -11.0938 L 21.5039 -9.53125 L 23.0762 -7.95898 L 24.043 -8.04688 C 24.3262 -8.07617 24.4141 -8.05664 24.6387 -7.83203 L 25.2637 -7.20703 L 22.5098 -4.46289 L 21.8848 -5.07812 C 21.6602 -5.30273 21.6406 -5.40039 21.6699 -5.68359 L 21.7578 -6.64062 L 20.1953 -8.20312 L 18.5742 -7.89062 C 18.291 -7.83203 18.1445 -7.83203 17.9102 -8.07617 L 15.7324 -10.2539 C 15.5078 -10.4883 15.4785 -10.625 15.6055 -10.9473 L 16.5527 -13.2227 C 14.9512 -14.7559 12.8418 -15.6055 10.8008 -14.9512 C 10.7129 -14.9219 10.6445 -14.9414 10.6152 -14.9805 C 10.5859 -15.0293 10.5859 -15.0781 10.6738 -15.1465 Z M 4.10156 2.41211 C 3.61328 1.91406 3.78906 1.61133 4.12109 1.30859 L 15.0781 -8.80859 L 16.3086 -7.57812 L 6.15234 3.34961 C 5.84961 3.68164 5.46875 3.7793 5.06836 3.37891 Z"
         id="path380" />
    </g>
    <text
       style="stroke:none;fill:black;font-family:-apple-system,&quot;SF Pro Display&quot;,&quot;SF Pro Text&quot;,Helvetica,sans-serif;font-weight:bold;"
       transform="matrix(1 0 0 1 1289 1953)"
       id="text384">Exporting</text>
    <text
       style="stroke:none;fill:black;font-family:-apple-system,&quot;SF Pro Display&quot;,&quot;SF Pro Text&quot;,Helvetica,sans-serif;"
       transform="matrix(1 0 0 1 1289 1971)"
       id="text386">Symbols should be outlined when exporting to ensure the</text>
    <text
       style="stroke:none;fill:black;font-family:-apple-system,&quot;SF Pro Display&quot;,&quot;SF Pro Text&quot;,Helvetica,sans-serif;"
       transform="matrix(1 0 0 1 1289 1989)"
       id="text388">design is preserved when submitting to Xcode.</text>
    <text
       id="template-version"
       style="stroke:none;fill:black;font-family:-apple-system,&quot;SF Pro Display&quot;,&quot;SF Pro Text&quot;,Helvetica,sans-serif;text-anchor:end;"
       transform="matrix(1 0 0 1 3036 1933)">Template v.1.0</text>
    <text
       style="stroke:none;fill:black;font-family:-apple-system,&quot;SF Pro Display&quot;,&quot;SF Pro Text&quot;,Helvetica,sans-serif;text-anchor:end;"
       transform="matrix(1 0 0 1 3036 1951)"
       id="text391">Generated from mic.circle</text>
    <text
       style="stroke:none;fill:black;font-family:-apple-system,&quot;SF Pro Display&quot;,&quot;SF Pro Text&quot;,Helvetica,sans-serif;text-anchor:end;"
       transform="matrix(1 0 0 1 3036 1969)"
       id="text393">Typeset at 100 points</text>
    <text
       style="stroke:none;fill:black;font-family:-apple-system,&quot;SF Pro Display&quot;,&quot;SF Pro Text&quot;,Helvetica,sans-serif;"
       transform="matrix(1 0 0 1 263 726)"
       id="text395">Small</text>
    <text
       style="stroke:none;fill:black;font-family:-apple-system,&quot;SF Pro Display&quot;,&quot;SF Pro Text&quot;,Helvetica,sans-serif;"
       transform="matrix(1 0 0 1 263 1156)"
       id="text397">Medium</text>
    <text
       style="stroke:none;fill:black;font-family:-apple-system,&quot;SF Pro Display&quot;,&quot;SF Pro Text&quot;,Helvetica,sans-serif;"
       transform="matrix(1 0 0 1 263 1586)"
       id="text399">Large</text>
  </g>
  <g
     id="Guides">
    <g
       id="H-reference"
       style="fill:#27AAE1;stroke:none;"
       transform="matrix(1 0 0 1 339 696)">
      <path
         d="M 54.9316 0 L 57.666 0 L 30.5664 -70.459 L 28.0762 -70.459 L 0.976562 0 L 3.66211 0 L 12.9395 -24.4629 L 45.7031 -24.4629 Z M 29.1992 -67.0898 L 29.4434 -67.0898 L 44.8242 -26.709 L 13.8184 -26.709 Z"
         id="path402" />
    </g>
    <line
       id="Baseline-S"
       style="fill:none;stroke:#27AAE1;opacity:1;stroke-width:0.577;"
       x1="263"
       x2="3036"
       y1="696"
       y2="696" />
    <line
       id="Capline-S"
       style="fill:none;stroke:#27AAE1;opacity:1;stroke-width:0.577;"
       x1="263"
       x2="3036"
       y1="625.541"
       y2="625.541" />
    <g
       id="g409"
       style="fill:#27AAE1;stroke:none;"
       transform="matrix(1 0 0 1 339 1126)">
      <path
         d="M 54.9316 0 L 57.666 0 L 30.5664 -70.459 L 28.0762 -70.459 L 0.976562 0 L 3.66211 0 L 12.9395 -24.4629 L 45.7031 -24.4629 Z M 29.1992 -67.0898 L 29.4434 -67.0898 L 44.8242 -26.709 L 13.8184 -26.709 Z"
         id="path407" />
    </g>
    <line
       id="Baseline-M"
       style="fill:none;stroke:#27AAE1;opacity:1;stroke-width:0.577;"
       x1="263"
       x2="3036"
       y1="1126"
       y2="1126" />
    <line
       id="Capline-M"
       style="fill:none;stroke:#27AAE1;opacity:1;stroke-width:0.577;"
       x1="263"
       x2="3036"
       y1="1055.54"
       y2="1055.54" />
    <g
       id="g415"
       style="fill:#27AAE1;stroke:none;"
       transform="matrix(1 0 0 1 339 1556)">
      <path
         d="M 54.9316 0 L 57.666 0 L 30.5664 -70.459 L 28.0762 -70.459 L 0.976562 0 L 3.66211 0 L 12.9395 -24.4629 L 45.7031 -24.4629 Z M 29.1992 -67.0898 L 29.4434 -67.0898 L 44.8242 -26.709 L 13.8184 -26.709 Z"
         id="path413" />
    </g>
    <line
       id="Baseline-L"
       style="fill:none;stroke:#27AAE1;opacity:1;stroke-width:0.577;"
       x1="263"
       x2="3036"
       y1="1556"
       y2="1556" />
    <line
       id="Capline-L"
       style="fill:none;stroke:#27AAE1;opacity:1;stroke-width:0.577;"
       x1="263"
       x2="3036"
       y1="1485.54"
       y2="1485.54" />
    <rect
       height="119.336"
       id="left-margin"
       style="fill:#00AEEF;stroke:none;opacity:0.4;"
       width="8.74023"
       x="1391.3"
       y="1030.79" />
    <rect
       height="119.336"
       id="right-margin"
       style="fill:#00AEEF;stroke:none;opacity:0.4;"
       width="8.74023"
       x="1499.65"
       y="1030.79" />
  </g>
  <g
     id="Symbols">
    <g
       id="Black-L"
       transform="matrix(1 0 0 1 2854.05 1556)">
      <path
         d="M 79.3457 32.8613 C 116.748 32.8613 147.412 2.19727 147.412 -35.2051 C 147.412 -72.6074 116.748 -103.271 79.2969 -103.271 C 41.8945 -103.271 11.2793 -72.6074 11.2793 -35.2051 C 11.2793 2.19727 41.9434 32.8613 79.3457 32.8613 Z M 79.3457 12.4023 C 52.9785 12.4023 31.7383 -8.83789 31.7383 -35.2051 C 31.7383 -61.5723 52.9297 -82.8125 79.2969 -82.8125 C 105.664 -82.8125 126.953 -61.5723 126.953 -35.2051 C 127.002 -8.83789 105.713 12.4023 79.3457 12.4023 Z M 79.3945 -27.0996 C 85.4492 -27.0996 90.9668 -31.7383 90.9668 -38.7207 L 90.9668 -60.4492 C 90.9668 -67.3828 85.4492 -72.1191 79.3945 -72.1191 C 73.3398 -72.1191 67.7246 -67.4805 67.7246 -60.5469 L 67.7246 -38.7207 C 67.7246 -31.7383 73.3398 -27.0996 79.3945 -27.0996 Z M 64.4531 -0.585938 L 94.2383 -0.585938 C 96.7285 -0.585938 98.877 -2.68555 98.877 -5.0293 C 98.877 -7.56836 96.7285 -9.61914 94.2383 -9.61914 L 83.5938 -9.61914 L 83.5938 -13.7207 C 96.0938 -15.3809 105.518 -24.2676 105.518 -37.3047 L 105.518 -45.5078 C 105.518 -47.9004 103.467 -49.8047 100.977 -49.8047 C 98.4863 -49.8047 96.3379 -47.9004 96.3379 -45.5078 L 96.3379 -37.4023 C 96.3379 -28.6133 88.6719 -21.6309 79.3457 -21.6309 C 70.0684 -21.6309 62.3535 -28.6133 62.3535 -37.4023 L 62.3535 -45.5078 C 62.3535 -47.9004 60.2051 -49.8047 57.7148 -49.8047 C 55.2246 -49.8047 53.1738 -47.9004 53.1738 -45.5078 L 53.1738 -37.3047 C 53.1738 -24.2676 62.6465 -15.332 75.0977 -13.7207 L 75.0977 -9.61914 L 64.4531 -9.61914 C 61.9629 -9.61914 59.8145 -7.56836 59.8145 -5.0293 C 59.8145 -2.68555 61.9629 -0.585938 64.4531 -0.585938 Z"
         id="path422" />
    </g>
    <g
       id="Heavy-L"
       transform="matrix(1 0 0 1 2558.39 1556)">
      <path
         d="M 78.2715 31.7871 C 115.088 31.7871 145.312 1.61133 145.312 -35.2051 C 145.312 -72.0215 115.039 -102.197 78.2715 -102.197 C 41.4551 -102.197 11.2793 -72.0215 11.2793 -35.2051 C 11.2793 1.61133 41.5039 31.7871 78.2715 31.7871 Z M 78.2715 14.0137 C 51.0254 14.0137 29.0527 -7.95898 29.0527 -35.2051 C 29.0527 -62.5 50.9766 -84.4727 78.2715 -84.4727 C 105.518 -84.4727 127.49 -62.5 127.539 -35.2051 C 127.539 -7.95898 105.566 14.0137 78.2715 14.0137 Z M 78.3203 -26.9531 C 84.4238 -26.9531 89.6484 -31.6406 89.6484 -38.5254 L 89.6484 -60.8887 C 89.6484 -67.6758 84.4238 -72.4121 78.3203 -72.4121 C 72.2168 -72.4121 66.9434 -67.7246 66.9434 -60.9375 L 66.9434 -38.5254 C 66.9434 -31.6406 72.2168 -26.9531 78.3203 -26.9531 Z M 63.2324 -0.683594 L 93.3594 -0.683594 C 95.6055 -0.683594 97.5098 -2.58789 97.5098 -4.6875 C 97.5098 -6.93359 95.6055 -8.78906 93.3594 -8.78906 L 82.1289 -8.78906 L 82.1289 -13.916 C 94.6289 -15.4297 103.857 -24.4141 103.857 -37.3535 L 103.857 -45.4102 C 103.857 -47.5586 102.002 -49.2676 99.8047 -49.2676 C 97.5586 -49.2676 95.6543 -47.5586 95.6543 -45.4102 L 95.6543 -37.4023 C 95.6543 -28.1738 88.0371 -21.0449 78.2715 -21.0449 C 68.5547 -21.0449 60.9375 -28.1738 60.9375 -37.4023 L 60.9375 -45.4102 C 60.9375 -47.5586 58.9844 -49.2676 56.7871 -49.2676 C 54.5898 -49.2676 52.7344 -47.5586 52.7344 -45.4102 L 52.7344 -37.3535 C 52.7344 -24.4141 61.9629 -15.4297 74.4629 -13.916 L 74.4629 -8.78906 L 63.2324 -8.78906 C 60.9863 -8.78906 59.0332 -6.93359 59.0332 -4.6875 C 59.0332 -2.58789 60.9863 -0.683594 63.2324 -0.683594 Z"
         id="path425" />
    </g>
    <g
       id="Bold-L"
       transform="matrix(1 0 0 1 2262.88 1556)">
      <path
         d="M 77.0996 30.6152 C 113.232 30.6152 142.92 0.878906 142.92 -35.2051 C 142.92 -71.3379 113.184 -101.025 77.0508 -101.025 C 40.9668 -101.025 11.2793 -71.3379 11.2793 -35.2051 C 11.2793 0.878906 41.0156 30.6152 77.0996 30.6152 Z M 77.0996 15.8691 C 48.8281 15.8691 26.0742 -6.93359 26.0742 -35.2051 C 26.0742 -63.4766 48.7793 -86.2793 77.0508 -86.2793 C 105.371 -86.2793 128.125 -63.4766 128.174 -35.2051 C 128.174 -6.93359 105.371 15.8691 77.0996 15.8691 Z M 77.1484 -26.8066 C 83.3008 -26.8066 88.1348 -31.543 88.1348 -38.2812 L 88.1348 -61.3281 C 88.1348 -68.0176 83.3008 -72.7539 77.1484 -72.7539 C 70.9961 -72.7539 66.0645 -68.0176 66.0645 -61.3281 L 66.0645 -38.2812 C 66.0645 -31.543 70.9961 -26.8066 77.1484 -26.8066 Z M 61.8164 -0.830078 L 92.4316 -0.830078 C 94.3359 -0.830078 95.9961 -2.49023 95.9961 -4.3457 C 95.9961 -6.25 94.3359 -7.91016 92.4316 -7.91016 L 80.5176 -7.91016 L 80.5176 -14.1113 C 93.0176 -15.5273 101.953 -24.6094 101.953 -37.3535 L 101.953 -45.3125 C 101.953 -47.2168 100.391 -48.7305 98.4375 -48.7305 C 96.5332 -48.7305 94.873 -47.2168 94.873 -45.3125 L 94.873 -37.4512 C 94.873 -27.6367 87.3535 -20.4102 77.0996 -20.4102 C 66.8945 -20.4102 59.3262 -27.6367 59.3262 -37.4512 L 59.3262 -45.3125 C 59.3262 -47.2168 57.666 -48.7305 55.7617 -48.7305 C 53.9062 -48.7305 52.2461 -47.2168 52.2461 -45.3125 L 52.2461 -37.3535 C 52.2461 -24.6094 61.2305 -15.4785 73.7305 -14.1113 L 73.7305 -7.91016 L 61.8164 -7.91016 C 59.8633 -7.91016 58.2031 -6.25 58.2031 -4.3457 C 58.2031 -2.49023 59.8633 -0.830078 61.8164 -0.830078 Z"
         id="path428" />
    </g>
    <g
       id="Semibold-L"
       transform="matrix(1 0 0 1 1966.97 1556)">
      <path
         d="M 76.2695 29.7852 C 111.914 29.7852 141.309 0.439453 141.309 -35.2051 C 141.309 -70.8496 111.865 -100.244 76.2695 -100.244 C 40.625 -100.244 11.2793 -70.8496 11.2793 -35.2051 C 11.2793 0.439453 40.6738 29.7852 76.2695 29.7852 Z M 76.2695 17.0898 C 47.3145 17.0898 24.0234 -6.25 24.0234 -35.2051 C 24.0234 -64.209 47.2656 -87.5 76.2695 -87.5 C 105.225 -87.5 128.564 -64.209 128.613 -35.2051 C 128.662 -6.25 105.273 17.0898 76.2695 17.0898 Z M 76.3184 -26.709 C 82.4707 -26.709 87.1582 -31.4941 87.1582 -38.0859 L 87.1582 -61.6211 C 87.1582 -68.2129 82.4707 -72.998 76.3184 -72.998 C 70.1172 -72.998 65.4297 -68.2129 65.4297 -61.6699 L 65.4297 -38.0859 C 65.4297 -31.4941 70.1172 -26.709 76.3184 -26.709 Z M 60.8398 -0.927734 L 91.7969 -0.927734 C 93.5059 -0.927734 94.9707 -2.39258 94.9707 -4.05273 C 94.9707 -5.81055 93.5059 -7.27539 91.7969 -7.27539 L 79.3945 -7.27539 L 79.3945 -14.3066 C 91.8945 -15.5762 100.684 -24.7559 100.684 -37.4023 L 100.684 -45.2637 C 100.684 -46.9238 99.2676 -48.291 97.5586 -48.291 C 95.8496 -48.291 94.3848 -46.9238 94.3848 -45.2637 L 94.3848 -37.4512 C 94.3848 -27.2949 86.8652 -19.9707 76.2695 -19.9707 C 65.7227 -19.9707 58.252 -27.2949 58.252 -37.4512 L 58.252 -45.2637 C 58.252 -46.9238 56.7383 -48.291 55.0781 -48.291 C 53.418 -48.291 51.9531 -46.9238 51.9531 -45.2637 L 51.9531 -37.4023 C 51.9531 -24.7559 60.7422 -15.5273 73.2422 -14.3066 L 73.2422 -7.27539 L 60.8398 -7.27539 C 59.082 -7.27539 57.6172 -5.81055 57.6172 -4.05273 C 57.6172 -2.39258 59.082 -0.927734 60.8398 -0.927734 Z"
         id="path431" />
    </g>
    <g
       id="Medium-L"
       transform="matrix(1 0 0 1 1670.87 1556)">
      <path
         d="M 75.6836 29.1992 C 110.938 29.1992 140.088 0.0488281 140.088 -35.2051 C 140.088 -70.459 110.889 -99.6094 75.6348 -99.6094 C 40.3809 -99.6094 11.2793 -70.459 11.2793 -35.2051 C 11.2793 0.0488281 40.3809 29.1992 75.6836 29.1992 Z M 75.6836 18.0664 C 46.1426 18.0664 22.4609 -5.71289 22.4609 -35.2051 C 22.4609 -64.6973 46.1426 -88.4766 75.6348 -88.4766 C 105.127 -88.4766 128.906 -64.6973 128.906 -35.2051 C 128.955 -5.71289 105.176 18.0664 75.6836 18.0664 Z M 75.6836 -26.6113 C 81.8848 -26.6113 86.377 -31.4453 86.377 -37.9395 L 86.377 -61.8652 C 86.377 -68.3594 81.8848 -73.1445 75.6836 -73.1445 C 69.4824 -73.1445 64.9902 -68.4082 64.9902 -61.8652 L 64.9902 -37.9395 C 64.9902 -31.4453 69.4824 -26.6113 75.6836 -26.6113 Z M 60.1074 -1.02539 L 91.3086 -1.02539 C 92.8223 -1.02539 94.1895 -2.34375 94.1895 -3.85742 C 94.1895 -5.46875 92.8223 -6.78711 91.3086 -6.78711 L 78.5156 -6.78711 L 78.5156 -14.4043 C 91.0156 -15.625 99.6582 -24.8535 99.6582 -37.4023 L 99.6582 -45.2148 C 99.6582 -46.7285 98.3887 -47.998 96.875 -47.998 C 95.3125 -47.998 93.9941 -46.7285 93.9941 -45.2148 L 93.9941 -37.4512 C 93.9941 -27.0508 86.5234 -19.6289 75.6836 -19.6289 C 64.8438 -19.6289 57.4219 -27.0508 57.4219 -37.4512 L 57.4219 -45.2148 C 57.4219 -46.7285 56.0547 -47.998 54.541 -47.998 C 53.0273 -47.998 51.709 -46.7285 51.709 -45.2148 L 51.709 -37.4023 C 51.709 -24.8535 60.3516 -15.5762 72.8516 -14.4043 L 72.8516 -6.78711 L 60.1074 -6.78711 C 58.4961 -6.78711 57.1777 -5.46875 57.1777 -3.85742 C 57.1777 -2.34375 58.4961 -1.02539 60.1074 -1.02539 Z"
         id="path434" />
    </g>
    <g
       id="Regular-L"
       transform="matrix(1 0 0 1 1374.97 1556)">
      <path
         d="M 74.8535 28.3691 C 109.668 28.3691 138.477 -0.390625 138.477 -35.2051 C 138.477 -70.0195 109.619 -98.7793 74.8047 -98.7793 C 40.0391 -98.7793 11.2793 -70.0195 11.2793 -35.2051 C 11.2793 -0.390625 40.0879 28.3691 74.8535 28.3691 Z M 74.8535 19.2871 C 44.6777 19.2871 20.4102 -5.0293 20.4102 -35.2051 C 20.4102 -65.3809 44.6289 -89.6973 74.8047 -89.6973 C 105.029 -89.6973 129.297 -65.3809 129.346 -35.2051 C 129.395 -5.0293 105.078 19.2871 74.8535 19.2871 Z M 74.8535 -26.5137 C 81.1035 -26.5137 85.3516 -31.3477 85.3516 -37.793 L 85.3516 -62.1582 C 85.3516 -68.6035 81.1035 -73.3887 74.8535 -73.3887 C 68.6523 -73.3887 64.4043 -68.6035 64.4043 -62.1582 L 64.4043 -37.793 C 64.4043 -31.3477 68.6523 -26.5137 74.8535 -26.5137 Z M 59.1309 -1.12305 L 90.6738 -1.12305 C 91.9922 -1.12305 93.1641 -2.29492 93.1641 -3.61328 C 93.1641 -4.98047 91.9922 -6.15234 90.6738 -6.15234 L 77.3926 -6.15234 L 77.3926 -14.5508 C 89.9414 -15.6738 98.3887 -24.9512 98.3887 -37.4512 L 98.3887 -45.166 C 98.3887 -46.4844 97.2656 -47.6074 95.9473 -47.6074 C 94.6289 -47.6074 93.457 -46.4844 93.457 -45.166 L 93.457 -37.4512 C 93.457 -26.709 86.0352 -19.1895 74.8535 -19.1895 C 63.7207 -19.1895 56.2988 -26.709 56.2988 -37.4512 L 56.2988 -45.166 C 56.2988 -46.4844 55.127 -47.6074 53.8086 -47.6074 C 52.5391 -47.6074 51.3672 -46.4844 51.3672 -45.166 L 51.3672 -37.4512 C 51.3672 -24.9512 59.8633 -15.625 72.3633 -14.5508 L 72.3633 -6.15234 L 59.1309 -6.15234 C 57.7637 -6.15234 56.5918 -4.98047 56.5918 -3.61328 C 56.5918 -2.29492 57.7637 -1.12305 59.1309 -1.12305 Z"
         id="path437" />
    </g>
    <g
       id="Light-L"
       transform="matrix(1 0 0 1 1079.18 1556)">
      <path
         d="M 73.9258 27.4902 C 108.301 27.4902 136.621 -0.830078 136.621 -35.1562 C 136.621 -69.5312 108.252 -97.8516 73.9258 -97.8516 C 39.5508 -97.8516 11.2793 -69.5312 11.2793 -35.1562 C 11.2793 -0.830078 39.5996 27.4902 73.9258 27.4902 Z M 73.9258 20.6055 C 43.1152 20.6055 18.2129 -4.3457 18.2129 -35.1562 C 18.2129 -66.0156 43.0664 -90.918 73.9258 -90.918 C 104.736 -90.918 129.688 -66.0156 129.736 -35.1562 C 129.736 -4.3457 104.785 20.6055 73.9258 20.6055 Z M 73.9258 -26.709 C 80.2734 -26.709 84.4727 -31.6406 84.4727 -38.0859 L 84.4727 -62.0117 C 84.4727 -68.457 80.2734 -73.3398 73.9258 -73.3398 C 67.627 -73.3398 63.4277 -68.457 63.4277 -62.0117 L 63.4277 -38.0859 C 63.4277 -31.6406 67.627 -26.709 73.9258 -26.709 Z M 58.5449 -0.830078 L 89.3555 -0.830078 C 90.5273 -0.830078 91.5039 -1.85547 91.5039 -2.97852 C 91.5039 -4.19922 90.5273 -5.17578 89.3555 -5.17578 L 76.123 -5.17578 L 76.123 -14.7949 C 88.623 -15.7715 97.2168 -25 97.2168 -37.2559 L 97.2168 -44.4336 C 97.2168 -45.6055 96.2402 -46.582 95.0684 -46.582 C 93.8965 -46.582 92.9199 -45.6055 92.9199 -44.4336 L 92.9199 -37.2559 C 92.9199 -26.3184 85.5469 -18.8965 73.9258 -18.8965 C 62.3535 -18.8965 55.0293 -26.3184 55.0293 -37.2559 L 55.0293 -44.4336 C 55.0293 -45.6055 54.0039 -46.582 52.832 -46.582 C 51.709 -46.582 50.7324 -45.6055 50.7324 -44.4336 L 50.7324 -37.2559 C 50.7324 -25 59.2773 -15.7715 71.7773 -14.7949 L 71.7773 -5.17578 L 58.5449 -5.17578 C 57.373 -5.17578 56.3477 -4.19922 56.3477 -2.97852 C 56.3477 -1.85547 57.373 -0.830078 58.5449 -0.830078 Z"
         id="path440" />
    </g>
    <g
       id="Thin-L"
       transform="matrix(1 0 0 1 783.693 1556)">
      <path
         d="M 72.7051 26.3184 C 106.494 26.3184 134.18 -1.36719 134.18 -35.1074 C 134.18 -68.8965 106.494 -96.582 72.7051 -96.582 C 38.9648 -96.582 11.2793 -68.8965 11.2793 -35.1074 C 11.2793 -1.36719 38.9648 26.3184 72.7051 26.3184 Z M 72.7051 22.3145 C 41.0156 22.3145 15.2832 -3.41797 15.2832 -35.1074 C 15.2832 -66.8457 41.0156 -92.5781 72.7051 -92.5781 C 104.395 -92.5781 130.176 -66.8457 130.176 -35.1074 C 130.176 -3.41797 104.443 22.3145 72.7051 22.3145 Z M 72.7051 -27.002 C 79.1504 -27.002 83.252 -31.9824 83.252 -38.4766 L 83.252 -61.7676 C 83.252 -68.3105 79.1504 -73.2422 72.7051 -73.2422 C 66.3086 -73.2422 62.207 -68.3105 62.207 -61.7676 L 62.207 -38.4766 C 62.207 -31.9824 66.3086 -27.002 72.7051 -27.002 Z M 57.8125 -0.488281 L 87.6465 -0.488281 C 88.5742 -0.488281 89.3555 -1.26953 89.3555 -2.19727 C 89.3555 -3.125 88.5742 -3.90625 87.6465 -3.90625 L 74.4629 -3.90625 L 74.4629 -15.1367 C 86.9141 -15.918 95.6543 -25.0488 95.6543 -37.0117 L 95.6543 -43.5059 C 95.6543 -44.4336 94.873 -45.2148 93.9453 -45.2148 C 92.9688 -45.2148 92.1875 -44.4336 92.1875 -43.5059 L 92.1875 -37.0117 C 92.1875 -25.7812 84.8633 -18.5059 72.7051 -18.5059 C 60.5469 -18.5059 53.3203 -25.7812 53.3203 -37.0117 L 53.3203 -43.5059 C 53.3203 -44.4336 52.5391 -45.2148 51.5625 -45.2148 C 50.6348 -45.2148 49.8535 -44.4336 49.8535 -43.5059 L 49.8535 -37.0117 C 49.8535 -25.0488 58.5449 -15.918 70.9961 -15.1367 L 70.9961 -3.90625 L 57.8125 -3.90625 C 56.8359 -3.90625 56.0547 -3.125 56.0547 -2.19727 C 56.0547 -1.26953 56.8359 -0.488281 57.8125 -0.488281 Z"
         id="path443" />
    </g>
    <g
       id="Ultralight-L"
       transform="matrix(1 0 0 1 487.616 1556)">
      <path
         d="M 72.1191 25.7324 C 105.566 25.7324 132.91 -1.61133 132.91 -35.1074 C 132.91 -68.5547 105.566 -95.8984 72.1191 -95.8984 C 38.623 -95.8984 11.2793 -68.5547 11.2793 -35.1074 C 11.2793 -1.61133 38.623 25.7324 72.1191 25.7324 Z M 72.1191 23.2422 C 39.9414 23.2422 13.7695 -2.97852 13.7695 -35.1074 C 13.7695 -67.2363 39.9414 -93.4082 72.1191 -93.4082 C 104.248 -93.4082 130.42 -67.2363 130.42 -35.1074 C 130.42 -2.97852 104.248 23.2422 72.1191 23.2422 Z M 72.1191 -27.1484 C 78.5645 -27.1484 82.6172 -32.1289 82.6172 -38.6719 L 82.6172 -61.6699 C 82.6172 -68.2129 78.5645 -73.1934 72.1191 -73.1934 C 65.625 -73.1934 61.5723 -68.2129 61.5723 -61.6699 L 61.5723 -38.6719 C 61.5723 -32.1289 65.625 -27.1484 72.1191 -27.1484 Z M 57.4219 -0.292969 L 86.7676 -0.292969 C 87.5977 -0.292969 88.2812 -0.927734 88.2812 -1.75781 C 88.2812 -2.58789 87.5977 -3.27148 86.7676 -3.27148 L 73.584 -3.27148 L 73.584 -15.332 C 86.0352 -16.0156 94.873 -25.0488 94.873 -36.9141 L 94.873 -43.0176 C 94.873 -43.8477 94.1895 -44.4824 93.3594 -44.4824 C 92.5293 -44.4824 91.8457 -43.8477 91.8457 -43.0176 L 91.8457 -36.9141 C 91.8457 -25.4883 84.5215 -18.2617 72.1191 -18.2617 C 59.668 -18.2617 52.4414 -25.4883 52.4414 -36.9141 L 52.4414 -43.0176 C 52.4414 -43.8477 51.7578 -44.4824 50.9277 -44.4824 C 50.0977 -44.4824 49.4141 -43.8477 49.4141 -43.0176 L 49.4141 -36.9141 C 49.4141 -25.0488 58.1543 -16.0156 70.6055 -15.332 L 70.6055 -3.27148 L 57.4219 -3.27148 C 56.5918 -3.27148 55.9082 -2.58789 55.9082 -1.75781 C 55.9082 -0.927734 56.5918 -0.292969 57.4219 -0.292969 Z"
         id="path446" />
    </g>
    <g
       id="Black-M"
       transform="matrix(1 0 0 1 2870.97 1126)">
      <path
         d="M 62.4023 18.457 C 91.9922 18.457 116.113 -5.61523 116.113 -35.2051 C 116.113 -64.7949 91.9922 -88.8672 62.4023 -88.8672 C 32.8125 -88.8672 8.74023 -64.7949 8.74023 -35.2051 C 8.74023 -5.61523 32.8125 18.457 62.4023 18.457 Z M 62.4023 0.195312 C 42.8711 0.195312 27.002 -15.625 27.002 -35.2051 C 27.002 -54.7363 42.8711 -70.6055 62.4023 -70.6055 C 81.9824 -70.6055 97.8027 -54.7363 97.8027 -35.2051 C 97.8027 -15.625 81.9824 0.195312 62.4023 0.195312 Z M 62.5 -29.248 C 67.1387 -29.248 71.7773 -32.8125 71.7773 -38.4277 L 71.7773 -54.1504 C 71.7773 -59.7168 67.1387 -63.3789 62.5 -63.3789 C 57.8125 -63.3789 53.0273 -59.7656 53.0273 -54.1992 L 53.0273 -38.4277 C 53.0273 -32.8125 57.8125 -29.248 62.5 -29.248 Z M 51.3672 -8.05664 L 73.4863 -8.05664 C 75.6836 -8.05664 77.5391 -9.86328 77.5391 -11.9629 C 77.5391 -14.1602 75.6836 -15.9668 73.4863 -15.9668 L 66.0645 -15.9668 L 66.0645 -18.4082 C 75.7324 -19.8242 83.3984 -26.5137 83.3984 -36.6699 L 83.3984 -42.9199 C 83.3984 -45.0684 81.5918 -46.6797 79.3945 -46.6797 C 77.1973 -46.6797 75.293 -45.0684 75.293 -42.9199 L 75.293 -36.8164 C 75.293 -30.5176 69.2871 -25.3418 62.4023 -25.3418 C 55.5664 -25.3418 49.5605 -30.5176 49.5605 -36.8164 L 49.5605 -42.9199 C 49.5605 -45.0684 47.6562 -46.6797 45.459 -46.6797 C 43.2617 -46.6797 41.4062 -45.0684 41.4062 -42.9199 L 41.4062 -36.6699 C 41.4062 -26.5137 49.1211 -19.8242 58.7891 -18.4082 L 58.7891 -15.9668 L 51.3672 -15.9668 C 49.1699 -15.9668 47.2656 -14.1602 47.2656 -11.9629 C 47.2656 -9.86328 49.1699 -8.05664 51.3672 -8.05664 Z"
         id="path449" />
    </g>
    <g
       id="Heavy-M"
       transform="matrix(1 0 0 1 2575.19 1126)">
      <path
         d="M 61.5234 17.5781 C 90.5273 17.5781 114.258 -6.15234 114.258 -35.2051 C 114.258 -64.2578 90.5273 -87.9883 61.4746 -87.9883 C 32.4707 -87.9883 8.74023 -64.2578 8.74023 -35.2051 C 8.74023 -6.15234 32.4707 17.5781 61.5234 17.5781 Z M 61.5234 1.66016 C 41.1133 1.66016 24.6582 -14.8438 24.6582 -35.2051 C 24.6582 -55.5664 41.1133 -72.0703 61.4746 -72.0703 C 81.8848 -72.0703 98.3398 -55.5664 98.3398 -35.2051 C 98.3398 -14.8438 81.8848 1.66016 61.5234 1.66016 Z M 61.5723 -29.0527 C 66.2598 -29.0527 70.6055 -32.6172 70.6055 -38.0859 L 70.6055 -54.6387 C 70.6055 -60.0586 66.2598 -63.7207 61.5723 -63.7207 C 56.8359 -63.7207 52.4414 -60.1074 52.4414 -54.6875 L 52.4414 -38.0859 C 52.4414 -32.6172 56.8359 -29.0527 61.5723 -29.0527 Z M 50.1465 -8.25195 L 72.9004 -8.25195 C 74.8535 -8.25195 76.5137 -9.91211 76.5137 -11.7676 C 76.5137 -13.7207 74.8535 -15.332 72.9004 -15.332 L 64.7949 -15.332 L 64.7949 -18.5547 C 74.4629 -19.873 81.8848 -26.709 81.8848 -36.7676 L 81.8848 -43.0176 C 81.8848 -44.9219 80.2734 -46.3867 78.3203 -46.3867 C 76.3672 -46.3867 74.707 -44.9219 74.707 -43.0176 L 74.707 -36.8652 C 74.707 -30.127 68.75 -24.7559 61.5234 -24.7559 C 54.2969 -24.7559 48.3398 -30.127 48.3398 -36.8652 L 48.3398 -43.0176 C 48.3398 -44.9219 46.6309 -46.3867 44.6777 -46.3867 C 42.7734 -46.3867 41.1133 -44.9219 41.1133 -43.0176 L 41.1133 -36.7676 C 41.1133 -26.709 48.5352 -19.8242 58.2031 -18.5547 L 58.2031 -15.332 L 50.1465 -15.332 C 48.1934 -15.332 46.4844 -13.7207 46.4844 -11.7676 C 46.4844 -9.91211 48.1934 -8.25195 50.1465 -8.25195 Z"
         id="path452" />
    </g>
    <g
       id="Bold-M"
       transform="matrix(1 0 0 1 2279.5 1126)">
      <path
         d="M 60.498 16.5039 C 88.8672 16.5039 112.207 -6.78711 112.207 -35.2051 C 112.207 -63.623 88.8672 -86.9629 60.4492 -86.9629 C 32.0312 -86.9629 8.74023 -63.623 8.74023 -35.2051 C 8.74023 -6.78711 32.0801 16.5039 60.498 16.5039 Z M 60.498 3.22266 C 39.1602 3.22266 22.0703 -13.916 22.0703 -35.2051 C 22.0703 -56.4941 39.1602 -73.6816 60.4492 -73.6816 C 81.7383 -73.6816 98.9258 -56.4941 98.9258 -35.2051 C 98.9746 -13.916 81.7871 3.22266 60.498 3.22266 Z M 60.498 -28.8086 C 65.2344 -28.8086 69.2383 -32.4219 69.2383 -37.7441 L 69.2383 -55.1758 C 69.2383 -60.4492 65.2344 -64.1113 60.498 -64.1113 C 55.7617 -64.1113 51.7578 -60.4492 51.7578 -55.2246 L 51.7578 -37.7441 C 51.7578 -32.4219 55.7617 -28.8086 60.498 -28.8086 Z M 48.7793 -8.49609 L 72.2168 -8.49609 C 73.877 -8.49609 75.3418 -9.91211 75.3418 -11.5234 C 75.3418 -13.1836 73.877 -14.5996 72.2168 -14.5996 L 63.3789 -14.5996 L 63.3789 -18.75 C 73.0957 -19.9219 80.1758 -26.9043 80.1758 -36.8652 L 80.1758 -43.1152 C 80.1758 -44.7754 78.7598 -46.0449 77.0996 -46.0449 C 75.4395 -46.0449 74.0234 -44.7754 74.0234 -43.1152 L 74.0234 -36.9141 C 74.0234 -29.6875 68.1152 -24.1699 60.498 -24.1699 C 52.8809 -24.1699 46.9727 -29.6875 46.9727 -36.9141 L 46.9727 -43.1152 C 46.9727 -44.7754 45.5078 -46.0449 43.8477 -46.0449 C 42.1875 -46.0449 40.8203 -44.7754 40.8203 -43.1152 L 40.8203 -36.8652 C 40.8203 -26.9043 47.9004 -19.873 57.6172 -18.75 L 57.6172 -14.5996 L 48.7793 -14.5996 C 47.0703 -14.5996 45.6055 -13.1836 45.6055 -11.5234 C 45.6055 -9.91211 47.0703 -8.49609 48.7793 -8.49609 Z"
         id="path455" />
    </g>
    <g
       id="Semibold-M"
       transform="matrix(1 0 0 1 1983.5 1126)">
      <path
         d="M 59.7656 15.8203 C 87.7441 15.8203 110.791 -7.22656 110.791 -35.2051 C 110.791 -63.1836 87.6953 -86.2793 59.7656 -86.2793 C 31.7871 -86.2793 8.74023 -63.1836 8.74023 -35.2051 C 8.74023 -7.22656 31.7871 15.8203 59.7656 15.8203 Z M 59.7656 4.3457 C 37.8418 4.3457 20.2637 -13.2812 20.2637 -35.2051 C 20.2637 -57.1289 37.793 -74.8047 59.7656 -74.8047 C 81.6895 -74.8047 99.3164 -57.1289 99.3652 -35.2051 C 99.3652 -13.2812 81.6895 4.3457 59.7656 4.3457 Z M 59.8145 -28.6621 C 64.5508 -28.6621 68.3105 -32.3242 68.3105 -37.4512 L 68.3105 -55.5664 C 68.3105 -60.6934 64.5508 -64.3555 59.8145 -64.3555 C 55.0293 -64.3555 51.2695 -60.7422 51.2695 -55.5664 L 51.2695 -37.4512 C 51.2695 -32.3242 55.0293 -28.6621 59.8145 -28.6621 Z M 47.8027 -8.64258 L 71.7773 -8.64258 C 73.2422 -8.64258 74.5117 -9.91211 74.5117 -11.377 C 74.5117 -12.8418 73.2422 -14.1113 71.7773 -14.1113 L 62.4023 -14.1113 L 62.4023 -18.8477 C 72.1191 -19.9219 79.0039 -27.002 79.0039 -36.9141 L 79.0039 -43.2129 C 79.0039 -44.6289 77.7832 -45.8008 76.3184 -45.8008 C 74.8047 -45.8008 73.5352 -44.6289 73.5352 -43.2129 L 73.5352 -36.9629 C 73.5352 -29.3945 67.7246 -23.7305 59.7656 -23.7305 C 51.8555 -23.7305 45.9961 -29.3945 45.9961 -36.9629 L 45.9961 -43.2129 C 45.9961 -44.6289 44.7266 -45.8008 43.2617 -45.8008 C 41.8457 -45.8008 40.5762 -44.6289 40.5762 -43.2129 L 40.5762 -36.9141 C 40.5762 -27.002 47.4609 -19.9219 57.1777 -18.8477 L 57.1777 -14.1113 L 47.8027 -14.1113 C 46.2891 -14.1113 45.0195 -12.8418 45.0195 -11.377 C 45.0195 -9.91211 46.2891 -8.64258 47.8027 -8.64258 Z"
         id="path458" />
    </g>
    <g
       id="Medium-M"
       transform="matrix(1 0 0 1 1687.3 1126)">
      <path
         d="M 59.2285 15.2832 C 86.9141 15.2832 109.766 -7.56836 109.766 -35.2051 C 109.766 -62.8906 86.8652 -85.7422 59.1797 -85.7422 C 31.543 -85.7422 8.74023 -62.8906 8.74023 -35.2051 C 8.74023 -7.56836 31.5918 15.2832 59.2285 15.2832 Z M 59.2285 5.17578 C 36.8164 5.17578 18.8965 -12.8418 18.8965 -35.2051 C 18.8965 -57.6172 36.8164 -75.6348 59.1797 -75.6348 C 81.5918 -75.6348 99.6094 -57.6172 99.6582 -35.2051 C 99.707 -12.8418 81.6406 5.17578 59.2285 5.17578 Z M 59.2773 -28.5156 C 64.0137 -28.5156 67.5781 -32.2266 67.5781 -37.3047 L 67.5781 -55.8594 C 67.5781 -60.8887 64.0137 -64.5508 59.2773 -64.5508 C 54.4922 -64.5508 50.8789 -60.8887 50.8789 -55.8594 L 50.8789 -37.3047 C 50.8789 -32.2266 54.4922 -28.5156 59.2773 -28.5156 Z M 47.0703 -8.78906 L 71.4355 -8.78906 C 72.7539 -8.78906 73.9258 -9.91211 73.9258 -11.2305 C 73.9258 -12.5977 72.7539 -13.7207 71.4355 -13.7207 L 61.6699 -13.7207 L 61.6699 -18.9453 C 71.3867 -19.9707 78.0762 -27.0996 78.0762 -37.0117 L 78.0762 -43.2617 C 78.0762 -44.5801 77.002 -45.6543 75.6836 -45.6543 C 74.3652 -45.6543 73.1934 -44.5801 73.1934 -43.2617 L 73.1934 -37.0117 C 73.1934 -29.1504 67.3828 -23.3887 59.2285 -23.3887 C 51.123 -23.3887 45.3125 -29.1504 45.3125 -37.0117 L 45.3125 -43.2617 C 45.3125 -44.5801 44.1406 -45.6543 42.8223 -45.6543 C 41.5527 -45.6543 40.3809 -44.5801 40.3809 -43.2617 L 40.3809 -37.0117 C 40.3809 -27.0996 47.168 -19.9219 56.8359 -18.9453 L 56.8359 -13.7207 L 47.0703 -13.7207 C 45.752 -13.7207 44.5801 -12.5977 44.5801 -11.2305 C 44.5801 -9.91211 45.752 -8.78906 47.0703 -8.78906 Z"
         id="path461" />
    </g>
    <g
       id="Regular-M"
       transform="matrix(1 0 0 1 1391.3 1126)">
      <path
         d="M 58.5449 14.5508 C 85.791 14.5508 108.35 -8.00781 108.35 -35.2539 C 108.35 -62.4512 85.7422 -85.0586 58.4961 -85.0586 C 31.2988 -85.0586 8.74023 -62.4512 8.74023 -35.2539 C 8.74023 -8.00781 31.3477 14.5508 58.5449 14.5508 Z M 58.5449 6.25 C 35.498 6.25 17.0898 -12.207 17.0898 -35.2539 C 17.0898 -58.252 35.4492 -76.7578 58.4961 -76.7578 C 81.543 -76.7578 100 -58.252 100.049 -35.2539 C 100.098 -12.207 81.5918 6.25 58.5449 6.25 Z M 58.5449 -28.3691 C 63.3301 -28.3691 66.6504 -32.0801 66.6504 -37.0117 L 66.6504 -56.2012 C 66.6504 -61.1328 63.3301 -64.8438 58.5449 -64.8438 C 53.7598 -64.8438 50.4395 -61.1328 50.4395 -56.2012 L 50.4395 -37.0117 C 50.4395 -32.0801 53.7598 -28.3691 58.5449 -28.3691 Z M 46.1426 -8.93555 L 70.9961 -8.93555 C 72.1191 -8.93555 73.0957 -9.96094 73.0957 -11.084 C 73.0957 -12.2559 72.1191 -13.2324 70.9961 -13.2324 L 60.7422 -13.2324 L 60.7422 -19.043 C 70.4102 -20.0195 76.9531 -27.2461 76.9531 -37.0605 L 76.9531 -43.3105 C 76.9531 -44.4824 75.9766 -45.4102 74.8535 -45.4102 C 73.7305 -45.4102 72.7051 -44.4824 72.7051 -43.3105 L 72.7051 -37.0605 C 72.7051 -28.8574 66.9434 -22.9492 58.5449 -22.9492 C 50.1465 -22.9492 44.3848 -28.8574 44.3848 -37.0605 L 44.3848 -43.3105 C 44.3848 -44.4824 43.3594 -45.4102 42.2363 -45.4102 C 41.1621 -45.4102 40.1855 -44.4824 40.1855 -43.3105 L 40.1855 -37.0605 C 40.1855 -27.2461 46.7285 -19.9707 56.4453 -19.043 L 56.4453 -13.2324 L 46.1426 -13.2324 C 44.9707 -13.2324 43.9941 -12.2559 43.9941 -11.084 C 43.9941 -9.96094 44.9707 -8.93555 46.1426 -8.93555 Z"
         id="path464" />
    </g>
    <g
       id="Light-M"
       transform="matrix(1 0 0 1 1095.42 1126)">
      <path
         d="M 57.7148 13.7695 C 84.5215 13.7695 106.689 -8.39844 106.689 -35.2051 C 106.689 -62.0117 84.5215 -84.1797 57.666 -84.1797 C 30.8594 -84.1797 8.74023 -62.0117 8.74023 -35.2051 C 8.74023 -8.39844 30.9082 13.7695 57.7148 13.7695 Z M 57.7148 7.4707 C 34.082 7.4707 15.0879 -11.5723 15.0879 -35.2051 C 15.0879 -58.8379 34.082 -77.832 57.666 -77.832 C 81.2988 -77.832 100.342 -58.8379 100.391 -35.2051 C 100.391 -11.5723 81.3477 7.4707 57.7148 7.4707 Z M 57.7148 -28.5645 C 62.5977 -28.5645 65.8691 -32.3242 65.8691 -37.3047 L 65.8691 -56.0547 C 65.8691 -61.0352 62.5977 -64.7949 57.7148 -64.7949 C 52.8809 -64.7949 49.6094 -61.0352 49.6094 -56.0547 L 49.6094 -37.3047 C 49.6094 -32.3242 52.8809 -28.5645 57.7148 -28.5645 Z M 45.6543 -8.69141 L 69.8242 -8.69141 C 70.8008 -8.69141 71.6797 -9.57031 71.6797 -10.498 C 71.6797 -11.5234 70.8008 -12.4023 69.8242 -12.4023 L 59.5703 -12.4023 L 59.5703 -19.2871 C 69.2871 -20.1172 75.8789 -27.2949 75.8789 -36.9141 L 75.8789 -42.6758 C 75.8789 -43.6523 75.0488 -44.4824 74.0723 -44.4824 C 73.0957 -44.4824 72.2656 -43.6523 72.2656 -42.6758 L 72.2656 -36.9141 C 72.2656 -28.4668 66.5039 -22.7051 57.7148 -22.7051 C 48.9258 -22.7051 43.2129 -28.4668 43.2129 -36.9141 L 43.2129 -42.6758 C 43.2129 -43.6523 42.3828 -44.4824 41.4062 -44.4824 C 40.4297 -44.4824 39.5996 -43.6523 39.5996 -42.6758 L 39.5996 -36.9141 C 39.5996 -27.2949 46.1914 -20.0684 55.9082 -19.2871 L 55.9082 -12.4023 L 45.6543 -12.4023 C 44.6289 -12.4023 43.7988 -11.5234 43.7988 -10.498 C 43.7988 -9.57031 44.6289 -8.69141 45.6543 -8.69141 Z"
         id="path467" />
    </g>
    <g
       id="Thin-M"
       transform="matrix(1 0 0 1 799.806 1126)">
      <path
         d="M 56.6406 12.7441 C 82.9102 12.7441 104.492 -8.83789 104.492 -35.1562 C 104.492 -61.4746 82.9102 -83.0566 56.5918 -83.0566 C 30.3223 -83.0566 8.74023 -61.4746 8.74023 -35.1562 C 8.74023 -8.83789 30.3223 12.7441 56.6406 12.7441 Z M 56.6406 8.98438 C 32.2266 8.98438 12.4512 -10.791 12.4512 -35.1562 C 12.4512 -59.5215 32.2266 -79.2969 56.5918 -79.2969 C 81.0059 -79.2969 100.781 -59.5215 100.781 -35.1562 C 100.781 -10.791 81.0059 8.98438 56.6406 8.98438 Z M 56.6406 -28.8086 C 61.5723 -28.8086 64.7949 -32.6172 64.7949 -37.6465 L 64.7949 -55.8594 C 64.7949 -60.8887 61.5723 -64.6973 56.6406 -64.6973 C 51.6602 -64.6973 48.4863 -60.8887 48.4863 -55.8594 L 48.4863 -37.6465 C 48.4863 -32.6172 51.6602 -28.8086 56.6406 -28.8086 Z M 44.9707 -8.34961 L 68.3105 -8.34961 C 69.0918 -8.34961 69.7266 -9.0332 69.7266 -9.81445 C 69.7266 -10.5957 69.0918 -11.2305 68.3105 -11.2305 L 58.0566 -11.2305 L 58.0566 -19.5801 C 67.7246 -20.2637 74.4629 -27.3438 74.4629 -36.6699 L 74.4629 -41.8457 C 74.4629 -42.627 73.8281 -43.2617 73.0469 -43.2617 C 72.2656 -43.2617 71.6309 -42.627 71.6309 -41.8457 L 71.6309 -36.6699 C 71.6309 -28.0273 65.918 -22.3145 56.6406 -22.3145 C 47.3145 -22.3145 41.6992 -28.0273 41.6992 -36.6699 L 41.6992 -41.8457 C 41.6992 -42.627 41.0156 -43.2617 40.2344 -43.2617 C 39.502 -43.2617 38.8184 -42.627 38.8184 -41.8457 L 38.8184 -36.6699 C 38.8184 -27.3438 45.5078 -20.2148 55.1758 -19.5801 L 55.1758 -11.2305 L 44.9707 -11.2305 C 44.1895 -11.2305 43.5059 -10.5957 43.5059 -9.81445 C 43.5059 -9.0332 44.1895 -8.34961 44.9707 -8.34961 Z"
         id="path470" />
    </g>
    <g
       id="Ultralight-M"
       transform="matrix(1 0 0 1 503.656 1126)">
      <path
         d="M 56.0547 12.207 C 82.0801 12.207 103.369 -9.08203 103.369 -35.1562 C 103.369 -61.1816 82.0801 -82.4707 56.0547 -82.4707 C 30.0293 -82.4707 8.74023 -61.1816 8.74023 -35.1562 C 8.74023 -9.08203 30.0293 12.207 56.0547 12.207 Z M 56.0547 9.81445 C 31.2988 9.81445 11.1328 -10.3516 11.1328 -35.1562 C 11.1328 -59.9121 31.2988 -80.0781 56.0547 -80.0781 C 80.8594 -80.0781 100.977 -59.9121 100.977 -35.1562 C 100.977 -10.3516 80.8594 9.81445 56.0547 9.81445 Z M 56.0547 -28.9062 C 61.0352 -28.9062 64.209 -32.7637 64.209 -37.8418 L 64.209 -55.7617 C 64.209 -60.791 61.0352 -64.6973 56.0547 -64.6973 C 51.0742 -64.6973 47.9004 -60.791 47.9004 -55.7617 L 47.9004 -37.8418 C 47.9004 -32.7637 51.0742 -28.9062 56.0547 -28.9062 Z M 44.6289 -8.20312 L 67.5293 -8.20312 C 68.1641 -8.20312 68.75 -8.74023 68.75 -9.42383 C 68.75 -10.1074 68.1641 -10.6445 67.5293 -10.6445 L 57.2754 -10.6445 L 57.2754 -19.7754 C 66.9434 -20.3125 73.7305 -27.3438 73.7305 -36.5723 L 73.7305 -41.4062 C 73.7305 -42.0898 73.1934 -42.627 72.5098 -42.627 C 71.8262 -42.627 71.2891 -42.0898 71.2891 -41.4062 L 71.2891 -36.5723 C 71.2891 -27.7832 65.625 -22.168 56.0547 -22.168 C 46.4844 -22.168 40.918 -27.7832 40.918 -36.5723 L 40.918 -41.4062 C 40.918 -42.0898 40.332 -42.627 39.6484 -42.627 C 39.0137 -42.627 38.4277 -42.0898 38.4277 -41.4062 L 38.4277 -36.5723 C 38.4277 -27.3438 45.166 -20.3125 54.834 -19.7754 L 54.834 -10.6445 L 44.6289 -10.6445 C 43.9453 -10.6445 43.3594 -10.1074 43.3594 -9.42383 C 43.3594 -8.74023 43.9453 -8.20312 44.6289 -8.20312 Z"
         id="path473" />
    </g>
    <g
       id="Black-S"
       transform="matrix(1 0 0 1 2884.57 696)">
      <path
         d="M 48.8281 6.78711 C 71.9727 6.78711 90.8203 -12.0605 90.8203 -35.2051 C 90.8203 -58.3496 71.9727 -77.1973 48.8281 -77.1973 C 25.6836 -77.1973 6.83594 -58.3496 6.83594 -35.2051 C 6.83594 -12.0605 25.6836 6.78711 48.8281 6.78711 Z M 48.8281 -7.37305 C 33.4473 -7.37305 20.9961 -19.8242 20.9961 -35.2051 C 20.9961 -50.5859 33.4473 -63.0371 48.8281 -63.0371 C 64.209 -63.0371 76.6602 -50.5859 76.6602 -35.2051 C 76.6602 -19.8242 64.209 -7.37305 48.8281 -7.37305 Z M 48.877 -30.5176 C 52.5391 -30.5176 56.1523 -33.3008 56.1523 -37.6953 L 56.1523 -50.0977 C 56.1523 -54.4434 52.5391 -57.3242 48.877 -57.3242 C 45.2148 -57.3242 41.5039 -54.4922 41.5039 -50.1465 L 41.5039 -37.6953 C 41.5039 -33.3008 45.2148 -30.5176 48.877 -30.5176 Z M 40.1367 -13.9648 L 57.5195 -13.9648 C 59.2285 -13.9648 60.6934 -15.3809 60.6934 -16.9922 C 60.6934 -18.7012 59.2285 -20.1172 57.5195 -20.1172 L 51.6602 -20.1172 L 51.6602 -22.0703 C 59.2285 -23.1445 65.2344 -28.418 65.2344 -36.377 L 65.2344 -41.2598 C 65.2344 -42.9199 63.8184 -44.1895 62.1094 -44.1895 C 60.4004 -44.1895 58.9355 -42.9199 58.9355 -41.2598 L 58.9355 -36.4746 C 58.9355 -31.4941 54.248 -27.4414 48.8281 -27.4414 C 43.457 -27.4414 38.7207 -31.4941 38.7207 -36.4746 L 38.7207 -41.2598 C 38.7207 -42.9199 37.2559 -44.1895 35.5469 -44.1895 C 33.8379 -44.1895 32.4219 -42.9199 32.4219 -41.2598 L 32.4219 -36.377 C 32.4219 -28.418 38.4277 -23.1445 45.9961 -22.0703 L 45.9961 -20.1172 L 40.1367 -20.1172 C 38.4277 -20.1172 36.9629 -18.7012 36.9629 -16.9922 C 36.9629 -15.3809 38.4277 -13.9648 40.1367 -13.9648 Z"
         id="path476" />
    </g>
    <g
       id="Heavy-S"
       transform="matrix(1 0 0 1 2588.47 696)">
      <path
         d="M 48.2422 6.15234 C 70.9961 6.15234 89.5996 -12.4512 89.5996 -35.2051 C 89.5996 -57.959 70.9961 -76.6113 48.1934 -76.6113 C 25.4395 -76.6113 6.83594 -57.959 6.83594 -35.2051 C 6.83594 -12.4512 25.4395 6.15234 48.2422 6.15234 Z M 48.2422 -6.39648 C 32.2754 -6.39648 19.4336 -19.2871 19.4336 -35.2051 C 19.4336 -51.1719 32.2754 -64.0137 48.1934 -64.0137 C 64.1602 -64.0137 77.002 -51.1719 77.0508 -35.2051 C 77.0508 -19.2871 64.1602 -6.39648 48.2422 -6.39648 Z M 48.2422 -30.3223 C 51.9531 -30.3223 55.3223 -33.1543 55.3223 -37.4023 L 55.3223 -50.4883 C 55.3223 -54.7363 51.9531 -57.5684 48.2422 -57.5684 C 44.5801 -57.5684 41.1133 -54.7363 41.1133 -50.5371 L 41.1133 -37.4023 C 41.1133 -33.1543 44.5801 -30.3223 48.2422 -30.3223 Z M 39.2578 -14.1602 L 57.1777 -14.1602 C 58.7402 -14.1602 60.0586 -15.4297 60.0586 -16.8945 C 60.0586 -18.457 58.7402 -19.7266 57.1777 -19.7266 L 50.8301 -19.7266 L 50.8301 -22.168 C 58.3984 -23.1934 64.1602 -28.5645 64.1602 -36.4746 L 64.1602 -41.4062 C 64.1602 -42.9199 62.8906 -44.043 61.377 -44.043 C 59.8633 -44.043 58.5449 -42.9199 58.5449 -41.4062 L 58.5449 -36.5234 C 58.5449 -31.25 53.8574 -27.0508 48.2422 -27.0508 C 42.627 -27.0508 37.9395 -31.25 37.9395 -36.5234 L 37.9395 -41.4062 C 37.9395 -42.9199 36.5723 -44.043 35.0586 -44.043 C 33.5449 -44.043 32.2754 -42.9199 32.2754 -41.4062 L 32.2754 -36.4746 C 32.2754 -28.5645 38.0371 -23.1445 45.6543 -22.168 L 45.6543 -19.7266 L 39.2578 -19.7266 C 37.6953 -19.7266 36.377 -18.457 36.377 -16.8945 C 36.377 -15.4297 37.6953 -14.1602 39.2578 -14.1602 Z"
         id="path479" />
    </g>
    <g
       id="Bold-S"
       transform="matrix(1 0 0 1 2292.44 696)">
      <path
         d="M 47.5586 5.46875 C 69.873 5.46875 88.2324 -12.8906 88.2324 -35.2051 C 88.2324 -57.5684 69.873 -75.9277 47.5098 -75.9277 C 25.1953 -75.9277 6.83594 -57.5684 6.83594 -35.2051 C 6.83594 -12.8906 25.1953 5.46875 47.5586 5.46875 Z M 47.5586 -5.32227 C 30.957 -5.32227 17.6758 -18.6523 17.6758 -35.2051 C 17.6758 -51.8066 30.957 -65.1367 47.5098 -65.1367 C 64.1113 -65.1367 77.4414 -51.8066 77.4414 -35.2051 C 77.4414 -18.6523 64.1113 -5.32227 47.5586 -5.32227 Z M 47.5586 -30.127 C 51.2695 -30.127 54.3945 -32.959 54.3945 -37.1094 L 54.3945 -50.9277 C 54.3945 -55.0293 51.2695 -57.8613 47.5586 -57.8613 C 43.8965 -57.8613 40.7227 -55.0293 40.7227 -50.9277 L 40.7227 -37.1094 C 40.7227 -32.959 43.8965 -30.127 47.5586 -30.127 Z M 38.2812 -14.3555 L 56.8359 -14.3555 C 58.1543 -14.3555 59.3262 -15.4785 59.3262 -16.7969 C 59.3262 -18.1152 58.1543 -19.2871 56.8359 -19.2871 L 49.9023 -19.2871 L 49.9023 -22.2656 C 57.4707 -23.1934 62.9883 -28.7109 62.9883 -36.5723 L 62.9883 -41.5527 C 62.9883 -42.8711 61.9141 -43.9453 60.5469 -43.9453 C 59.2285 -43.9453 58.0566 -42.8711 58.0566 -41.5527 L 58.0566 -36.6211 C 58.0566 -30.957 53.4668 -26.6113 47.5586 -26.6113 C 41.6504 -26.6113 37.0117 -30.957 37.0117 -36.6211 L 37.0117 -41.5527 C 37.0117 -42.8711 35.8398 -43.9453 34.5215 -43.9453 C 33.2031 -43.9453 32.0801 -42.8711 32.0801 -41.5527 L 32.0801 -36.5723 C 32.0801 -28.7109 37.6465 -23.1934 45.2148 -22.2656 L 45.2148 -19.2871 L 38.2812 -19.2871 C 36.9141 -19.2871 35.7422 -18.1152 35.7422 -16.7969 C 35.7422 -15.4785 36.9141 -14.3555 38.2812 -14.3555 Z"
         id="path482" />
    </g>
    <g
       id="Semibold-S"
       transform="matrix(1 0 0 1 1996.2 696)">
      <path
         d="M 47.0703 4.98047 C 69.0918 4.98047 87.3047 -13.1836 87.3047 -35.2539 C 87.3047 -57.2754 69.0918 -75.4883 47.0215 -75.4883 C 25 -75.4883 6.83594 -57.2754 6.83594 -35.2539 C 6.83594 -13.1836 25.0488 4.98047 47.0703 4.98047 Z M 47.0703 -4.58984 C 30.0781 -4.58984 16.4551 -18.2129 16.4551 -35.2539 C 16.4551 -52.2461 30.0293 -65.8691 47.0215 -65.8691 C 64.0625 -65.8691 77.6855 -52.2461 77.7344 -35.2539 C 77.7344 -18.2129 64.0625 -4.58984 47.0703 -4.58984 Z M 47.0703 -29.9805 C 50.7812 -29.9805 53.7598 -32.8613 53.7598 -36.9141 L 53.7598 -51.2207 C 53.7598 -55.2246 50.7812 -58.1055 47.0703 -58.1055 C 43.4082 -58.1055 40.4297 -55.2246 40.4297 -51.2207 L 40.4297 -36.9141 C 40.4297 -32.8613 43.4082 -29.9805 47.0703 -29.9805 Z M 37.5977 -14.502 L 56.5918 -14.502 C 57.8125 -14.502 58.8379 -15.5273 58.8379 -16.6992 C 58.8379 -17.9199 57.8125 -18.9453 56.5918 -18.9453 L 49.2188 -18.9453 L 49.2188 -22.3145 C 56.8359 -23.2422 62.207 -28.8086 62.207 -36.6211 L 62.207 -41.6992 C 62.207 -42.8711 61.1816 -43.8477 60.0098 -43.8477 C 58.7891 -43.8477 57.7637 -42.8711 57.7637 -41.6992 L 57.7637 -36.6699 C 57.7637 -30.7617 53.1738 -26.2695 47.0703 -26.2695 C 41.0156 -26.2695 36.377 -30.7617 36.377 -36.6699 L 36.377 -41.6992 C 36.377 -42.8711 35.3516 -43.8477 34.1797 -43.8477 C 33.0078 -43.8477 31.9824 -42.8711 31.9824 -41.6992 L 31.9824 -36.6211 C 31.9824 -28.8086 37.3535 -23.1934 44.9219 -22.3145 L 44.9219 -18.9453 L 37.5977 -18.9453 C 36.377 -18.9453 35.3027 -17.9199 35.3027 -16.6992 C 35.3027 -15.5273 36.377 -14.502 37.5977 -14.502 Z"
         id="path485" />
    </g>
    <g
       id="Medium-S"
       transform="matrix(1 0 0 1 1699.83 696)">
      <path
         d="M 46.7285 4.63867 C 68.5547 4.63867 86.6211 -13.4277 86.6211 -35.2539 C 86.6211 -57.0312 68.5059 -75.1465 46.6797 -75.1465 C 24.8535 -75.1465 6.83594 -57.0312 6.83594 -35.2539 C 6.83594 -13.4277 24.9023 4.63867 46.7285 4.63867 Z M 46.7285 -4.00391 C 29.3945 -4.00391 15.5273 -17.9199 15.5273 -35.2539 C 15.5273 -52.5879 29.3457 -66.4551 46.6797 -66.4551 C 64.0137 -66.4551 77.8809 -52.5879 77.9297 -35.2539 C 77.9785 -17.9199 64.0625 -4.00391 46.7285 -4.00391 Z M 46.7285 -29.8828 C 50.4395 -29.8828 53.2227 -32.7637 53.2227 -36.7188 L 53.2227 -51.416 C 53.2227 -55.3711 50.4395 -58.252 46.7285 -58.252 C 43.0176 -58.252 40.1855 -55.4199 40.1855 -51.4648 L 40.1855 -36.7188 C 40.1855 -32.7637 43.0176 -29.8828 46.7285 -29.8828 Z M 37.0605 -14.5996 L 56.3965 -14.5996 C 57.5195 -14.5996 58.4473 -15.5762 58.4473 -16.6504 C 58.4473 -17.7734 57.5195 -18.75 56.3965 -18.75 L 48.7305 -18.75 L 48.7305 -22.3633 C 56.3477 -23.2422 61.5723 -28.8574 61.5723 -36.6699 L 61.5723 -41.7969 C 61.5723 -42.8711 60.6445 -43.75 59.5703 -43.75 C 58.4961 -43.75 57.5195 -42.8711 57.5195 -41.7969 L 57.5195 -36.6699 C 57.5195 -30.6152 52.9297 -26.0254 46.7285 -26.0254 C 40.4785 -26.0254 35.9375 -30.6152 35.9375 -36.6699 L 35.9375 -41.7969 C 35.9375 -42.8711 34.9609 -43.75 33.8867 -43.75 C 32.8125 -43.75 31.8848 -42.8711 31.8848 -41.7969 L 31.8848 -36.6699 C 31.8848 -28.8574 37.1094 -23.1934 44.7266 -22.3633 L 44.7266 -18.75 L 37.0605 -18.75 C 35.9375 -18.75 34.9609 -17.7734 34.9609 -16.6504 C 34.9609 -15.5762 35.9375 -14.5996 37.0605 -14.5996 Z"
         id="path488" />
    </g>
    <g
       id="Regular-S"
       transform="matrix(1 0 0 1 1403.58 696)">
      <path
         d="M 46.2402 4.15039 C 67.7734 4.15039 85.6934 -13.7207 85.6934 -35.2539 C 85.6934 -56.7871 67.7246 -74.6582 46.1914 -74.6582 C 24.707 -74.6582 6.83594 -56.7871 6.83594 -35.2539 C 6.83594 -13.7207 24.7559 4.15039 46.2402 4.15039 Z M 46.2402 -3.27148 C 28.5156 -3.27148 14.3555 -17.4805 14.3555 -35.2539 C 14.3555 -53.0273 28.4668 -67.2363 46.1914 -67.2363 C 63.9648 -67.2363 78.1738 -53.0273 78.2227 -35.2539 C 78.2715 -17.4805 64.0137 -3.27148 46.2402 -3.27148 Z M 46.2402 -29.7852 C 50 -29.7852 52.5879 -32.666 52.5879 -36.5234 L 52.5879 -51.7578 C 52.5879 -55.6152 50 -58.4473 46.2402 -58.4473 C 42.5293 -58.4473 39.8926 -55.6152 39.8926 -51.7578 L 39.8926 -36.5234 C 39.8926 -32.666 42.5293 -29.7852 46.2402 -29.7852 Z M 36.377 -14.7461 L 56.1523 -14.7461 C 57.1289 -14.7461 57.959 -15.625 57.959 -16.5527 C 57.959 -17.5781 57.1289 -18.4082 56.1523 -18.4082 L 48.0957 -18.4082 L 48.0957 -22.4609 C 55.7129 -23.2422 60.791 -28.9551 60.791 -36.7188 L 60.791 -41.8945 C 60.791 -42.8223 59.9609 -43.6523 59.0332 -43.6523 C 58.0566 -43.6523 57.1777 -42.8223 57.1777 -41.8945 L 57.1777 -36.7188 C 57.1777 -30.4199 52.6855 -25.7324 46.2402 -25.7324 C 39.8438 -25.7324 35.3027 -30.4199 35.3027 -36.7188 L 35.3027 -41.8945 C 35.3027 -42.8223 34.4727 -43.6523 33.4961 -43.6523 C 32.6172 -43.6523 31.7383 -42.8223 31.7383 -41.8945 L 31.7383 -36.7188 C 31.7383 -28.9551 36.8164 -23.1934 44.4336 -22.4609 L 44.4336 -18.4082 L 36.377 -18.4082 C 35.4004 -18.4082 34.5215 -17.5781 34.5215 -16.5527 C 34.5215 -15.625 35.4004 -14.7461 36.377 -14.7461 Z"
         id="path491" />
    </g>
    <g
       id="Light-S"
       transform="matrix(1 0 0 1 1107.6 696)">
      <path
         d="M 45.5078 3.4668 C 66.6992 3.4668 84.2285 -14.0625 84.2285 -35.2051 C 84.2285 -56.3965 66.6504 -73.9258 45.5078 -73.9258 C 24.3164 -73.9258 6.83594 -56.3965 6.83594 -35.2051 C 6.83594 -14.0625 24.3652 3.4668 45.5078 3.4668 Z M 45.5078 -2.24609 C 27.2461 -2.24609 12.5977 -16.9434 12.5977 -35.2051 C 12.5977 -53.5156 27.1973 -68.2129 45.5078 -68.2129 C 63.7695 -68.2129 78.4668 -53.5156 78.5156 -35.2051 C 78.5156 -16.9434 63.8184 -2.24609 45.5078 -2.24609 Z M 45.5078 -29.9316 C 49.3164 -29.9316 51.9043 -32.8613 51.9043 -36.7676 L 51.9043 -51.6113 C 51.9043 -55.5176 49.3164 -58.3984 45.5078 -58.3984 C 41.748 -58.3984 39.1602 -55.5176 39.1602 -51.6113 L 39.1602 -36.7676 C 39.1602 -32.8613 41.748 -29.9316 45.5078 -29.9316 Z M 35.9375 -14.5508 L 55.127 -14.5508 C 55.957 -14.5508 56.6895 -15.2832 56.6895 -16.0645 C 56.6895 -16.9434 55.957 -17.6758 55.127 -17.6758 L 47.1191 -17.6758 L 47.1191 -22.6562 C 54.6875 -23.3398 59.8145 -29.0039 59.8145 -36.5723 L 59.8145 -41.3086 C 59.8145 -42.1387 59.1309 -42.8223 58.3008 -42.8223 C 57.5195 -42.8223 56.7871 -42.1387 56.7871 -41.3086 L 56.7871 -36.5723 C 56.7871 -30.0781 52.2461 -25.4883 45.5078 -25.4883 C 38.7695 -25.4883 34.2773 -30.0781 34.2773 -36.5723 L 34.2773 -41.3086 C 34.2773 -42.1387 33.5449 -42.8223 32.7637 -42.8223 C 31.9336 -42.8223 31.25 -42.1387 31.25 -41.3086 L 31.25 -36.5723 C 31.25 -29.0039 36.377 -23.291 43.9941 -22.6562 L 43.9941 -17.6758 L 35.9375 -17.6758 C 35.1074 -17.6758 34.375 -16.9434 34.375 -16.0645 C 34.375 -15.2832 35.1074 -14.5508 35.9375 -14.5508 Z"
         id="path494" />
    </g>
    <g
       id="Thin-S"
       transform="matrix(1 0 0 1 811.867 696)">
      <path
         d="M 44.5801 2.53906 C 65.2832 2.53906 82.2754 -14.4531 82.2754 -35.2051 C 82.2754 -55.9082 65.2344 -72.9004 44.5312 -72.9004 C 23.8281 -72.9004 6.83594 -55.9082 6.83594 -35.2051 C 6.83594 -14.4531 23.877 2.53906 44.5801 2.53906 Z M 44.5801 -0.878906 C 25.5859 -0.878906 10.2539 -16.2109 10.2539 -35.2051 C 10.2539 -54.1504 25.5859 -69.4824 44.5312 -69.4824 C 63.5254 -69.4824 78.8574 -54.1504 78.8574 -35.2051 C 78.8574 -16.2109 63.5254 -0.878906 44.5801 -0.878906 Z M 44.5801 -30.127 C 48.4375 -30.127 50.9277 -33.1055 50.9277 -37.0605 L 50.9277 -51.416 C 50.9277 -55.3711 48.4375 -58.3496 44.5801 -58.3496 C 40.7227 -58.3496 38.1836 -55.3711 38.1836 -51.416 L 38.1836 -37.0605 C 38.1836 -33.1055 40.7227 -30.127 44.5801 -30.127 Z M 35.3516 -14.2578 L 53.8086 -14.2578 C 54.4434 -14.2578 54.9805 -14.7949 54.9805 -15.4297 C 54.9805 -16.1133 54.4434 -16.6504 53.8086 -16.6504 L 45.752 -16.6504 L 45.752 -22.9004 C 53.3691 -23.4375 58.5938 -29.0039 58.5938 -36.4258 L 58.5938 -40.5762 C 58.5938 -41.2109 58.0566 -41.748 57.4219 -41.748 C 56.7871 -41.748 56.2012 -41.2109 56.2012 -40.5762 L 56.2012 -36.4258 C 56.2012 -29.6875 51.7578 -25.1953 44.5801 -25.1953 C 37.3535 -25.1953 32.959 -29.6875 32.959 -36.4258 L 32.959 -40.5762 C 32.959 -41.2109 32.373 -41.748 31.7383 -41.748 C 31.1035 -41.748 30.5664 -41.2109 30.5664 -40.5762 L 30.5664 -36.4258 C 30.5664 -29.0039 35.791 -23.4375 43.3594 -22.9004 L 43.3594 -16.6504 L 35.3516 -16.6504 C 34.668 -16.6504 34.1309 -16.1133 34.1309 -15.4297 C 34.1309 -14.7949 34.668 -14.2578 35.3516 -14.2578 Z"
         id="path497" />
    </g>
    <g
       id="Ultralight-S"
       transform="matrix(1 0 0 1 515.644 696)">
      <path
         d="M 44.043 2.05078 C 64.502 2.05078 81.2988 -14.6973 81.2988 -35.1562 C 81.2988 -55.6152 64.502 -72.3633 44.043 -72.3633 C 23.584 -72.3633 6.83594 -55.6152 6.83594 -35.1562 C 6.83594 -14.6973 23.584 2.05078 44.043 2.05078 Z M 44.043 -0.146484 C 24.7559 -0.146484 9.08203 -15.8691 9.08203 -35.1562 C 9.08203 -54.4434 24.7559 -70.166 44.043 -70.166 C 63.3789 -70.166 79.0527 -54.4434 79.0527 -35.1562 C 79.0527 -15.8691 63.3789 -0.146484 44.043 -0.146484 Z M 44.043 -30.2246 C 47.9492 -30.2246 50.4395 -33.252 50.4395 -37.207 L 50.4395 -51.3184 C 50.4395 -55.2734 47.9492 -58.3008 44.043 -58.3008 C 40.1855 -58.3008 37.6465 -55.2734 37.6465 -51.3184 L 37.6465 -37.207 C 37.6465 -33.252 40.1855 -30.2246 44.043 -30.2246 Z M 35.0098 -14.1113 L 53.0762 -14.1113 C 53.6621 -14.1113 54.1016 -14.5508 54.1016 -15.1367 C 54.1016 -15.6738 53.6621 -16.1133 53.0762 -16.1133 L 45.0684 -16.1133 L 45.0684 -23.0469 C 52.6367 -23.5352 57.959 -29.0527 57.959 -36.2793 L 57.959 -40.1855 C 57.959 -40.7227 57.5195 -41.2109 56.9336 -41.2109 C 56.3965 -41.2109 55.9082 -40.7227 55.9082 -40.1855 L 55.9082 -36.2793 C 55.9082 -29.4434 51.4648 -25.0488 44.043 -25.0488 C 36.6211 -25.0488 32.2266 -29.4434 32.2266 -36.2793 L 32.2266 -40.1855 C 32.2266 -40.7227 31.7871 -41.2109 31.2012 -41.2109 C 30.6641 -41.2109 30.2246 -40.7227 30.2246 -40.1855 L 30.2246 -36.2793 C 30.2246 -29.0527 35.4492 -23.5352 43.0176 -23.0469 L 43.0176 -16.1133 L 35.0098 -16.1133 C 34.4727 -16.1133 34.0332 -15.6738 34.0332 -15.1367 C 34.0332 -14.5508 34.4727 -14.1113 35.0098 -14.1113 Z"
         id="path500" />
    </g>
  </g>
  <rect
     style="fill:#0000ff;fill-rule:evenodd"
     id="rect512"
     width="10"
     height="26"
     x="1432.4426"
     y="1104.0645"
     ry="0" />
  <rect
     style="fill:#0000ff;fill-rule:evenodd"
     id="rect532"
     width="49"
     height="54"
     x="1431"
     y="1060" />
  <rect
     y="1078"
     x="816"
     height="23"
     width="80"
     id="rect654"
     style="fill:#000000" />
</svg>
